<svg xmlns="http://www.w3.org/2000/svg" viewBox="0 0 424.59222 124.74609">
  <title>Risorsa 1</title>
  <g id="Livello_2" data-name="Livello 2">
    <g id="Livello_1-2" data-name="Livello 1">
      <g>
        <rect x="11.43485" y="27.79604" width="1.03361" height="5.5251" transform="translate(-20.26632 24.33994) rotate(-57.71444)"/>
        <rect x="14.61922" y="23.24346" width="1.03354" height="5.52333" transform="translate(-14.68729 22.01304) rotate(-52.17477)"/>
        <rect x="10.0053" y="30.17901" width="1.03335" height="5.52578" transform="translate(-23.33093 25.88063) rotate(-60.5038)"/>
        <rect x="7.48718" y="35.13273" width="1.03394" height="5.5236" transform="translate(-29.78546 29.40884) rotate(-65.4173)"/>
        <rect x="8.68842" y="32.62576" width="1.03331" height="5.52533" transform="translate(-26.544 27.70224) rotate(-63.2855)"/>
        <rect x="12.97439" y="25.48318" width="1.03412" height="5.52242" transform="translate(-17.37897 23.06929) rotate(-54.95112)"/>
        <rect x="6.4066" y="37.69234" width="1.03347" height="5.52353" transform="translate(-33.21453 31.88566) rotate(-68.23809)"/>
        <rect x="28.7741" y="10.02139" width="1.03383" height="5.52412" transform="translate(-2.17129 18.39625) rotate(-33.69288)"/>
        <rect x="26.49989" y="11.61741" width="1.03342" height="5.52496" transform="matrix(0.80441, -0.59407, 0.59407, 0.80441, -3.25855, 18.86238)"/>
        <rect x="24.30119" y="13.31998" width="1.03386" height="5.52411" transform="translate(-4.58032 19.29176) rotate(-39.17395)"/>
        <rect x="31.12012" y="8.53116" width="1.03368" height="5.52313" transform="translate(-1.30337 17.87739) rotate(-30.94812)"/>
        <rect x="18.21373" y="19.00581" width="1.03349" height="5.525" transform="translate(-9.9578 20.47481) rotate(-46.70816)"/>
        <rect x="22.18571" y="15.12063" width="1.03386" height="5.52339" transform="translate(-6.1377 19.73228) rotate(-41.89686)"/>
        <rect x="16.36734" y="21.08261" width="1.03339" height="5.52278" transform="translate(-12.20887 21.15895) rotate(-49.42453)"/>
        <rect x="20.15476" y="17.01679" width="1.03375" height="5.52405" transform="translate(-7.93468 20.2224) rotate(-44.62398)"/>
        <rect x="1.5522" y="75.42666" width="5.52304" height="1.0334" transform="translate(-16.69158 2.83536) rotate(-12.77934)"/>
        <rect x="3.0674" y="80.77079" width="5.52488" height="1.03361" transform="translate(-25.43357 6.02632) rotate(-18.45577)"/>
        <rect x="4.01264" y="83.38491" width="5.52452" height="1.03389" transform="translate(-29.92915 8.15073) rotate(-21.2353)"/>
        <rect x="12.12902" y="97.88935" width="5.52467" height="1.0338" transform="translate(-56.39898 28.95677) rotate(-37.14436)"/>
        <rect x="5.44671" y="40.29969" width="1.03334" height="5.52415" transform="translate(-36.70497 34.73774) rotate(-71.07659)"/>
        <rect x="2.2465" y="78.11665" width="5.52408" height="1.03331" transform="translate(-20.99994 4.25696) rotate(-15.62957)"/>
        <rect x="6.26296" y="88.46533" width="5.52341" height="1.03419" transform="translate(-39.17844 13.64467) rotate(-26.82102)"/>
        <rect x="8.97694" y="93.31361" width="5.52219" height="1.03342" transform="translate(-47.49436 20.11849) rotate(-31.65364)"/>
        <rect x="0.98561" y="72.70566" width="5.52389" height="1.0335" transform="translate(-13.46934 1.9543) rotate(-10.65139)"/>
        <rect x="10.50051" y="95.63956" width="5.52291" height="1.03337" transform="translate(-52.00347 24.30691) rotate(-34.39817)"/>
        <rect x="7.56265" y="90.92174" width="5.52362" height="1.03346" transform="translate(-43.80535 17.02374) rotate(-29.59034)"/>
        <rect x="33.53123" y="7.15268" width="1.03372" height="5.52276" transform="translate(-0.64339 17.26677) rotate(-28.20092)"/>
        <rect x="3.31292" y="48.35325" width="1.03383" height="5.52445" transform="translate(-47.07394 45.09336) rotate(-78.96815)"/>
        <rect x="2.5259" y="53.85348" width="1.03365" height="5.52449" transform="translate(-53.61453 54.48167) rotate(-84.7666)"/>
        <rect x="2.85685" y="51.09476" width="1.03387" height="5.52289" transform="translate(-50.41773 49.57293) rotate(-81.86273)"/>
        <rect x="3.89841" y="45.6357" width="1.03325" height="5.52597" transform="translate(-43.71264 41.64208) rotate(-76.7963)"/>
        <rect x="4.61042" y="42.95073" width="1.03356" height="5.52482" transform="translate(-40.21969 37.99054) rotate(-73.93566)"/>
        <rect x="0.23511" y="67.19979" width="5.52343" height="1.03402" transform="translate(-5.74795 0.50017) rotate(-4.87847)"/>
        <rect x="0.54636" y="69.96133" width="5.52251" height="1.03389" transform="translate(-9.5099 1.09644) rotate(-7.77977)"/>
        <rect x="0.054" y="64.42716" width="5.52285" height="1.03338" transform="translate(-3.08588 0.20742) rotate(-2.72631)"/>
        <rect x="2.24756" y="59.40258" width="1.03321" height="5.52541" transform="translate(-59.40846 64.75913) rotate(-89.84304)"/>
        <rect x="2.322" y="56.62546" width="1.03373" height="5.52448" transform="translate(-56.61569 59.05213) rotate(-86.93984)"/>
        <rect x="5.07766" y="85.95083" width="5.52388" height="1.03389" transform="translate(-34.55514 10.69956) rotate(-24.04785)"/>
        <rect x="106.43743" y="24.94797" width="5.52456" height="1.03375" transform="translate(7.78238 73.29329) rotate(-38.3751)"/>
        <rect x="104.66706" y="22.80597" width="5.52477" height="1.03406" transform="translate(11.12379 76.33497) rotate(-41.0797)"/>
        <rect x="111.1304" y="31.83029" width="5.52532" height="1.03326" transform="translate(-0.79228 61.76165) rotate(-30.2404)"/>
        <rect x="102.79768" y="20.74938" width="5.52377" height="1.03395" transform="translate(14.64447 78.96839) rotate(-43.79301)"/>
        <rect x="108.10874" y="27.16824" width="5.52422" height="1.03363" transform="matrix(0.81221, -0.58337, 0.58337, 0.81221, 4.6701, 69.87758)"/>
        <rect x="92.14081" y="11.88116" width="5.52355" height="1.03358" transform="translate(32.40341 84.88287) rotate(-56.67377)"/>
        <rect x="96.65005" y="15.12847" width="5.52168" height="1.03359" transform="translate(24.96425 83.35787) rotate(-51.23179)"/>
        <rect x="94.43331" y="13.45278" width="5.52352" height="1.0339" transform="translate(28.70287 84.33203) rotate(-53.95066)"/>
        <rect x="100.8356" y="18.78141" width="5.52265" height="1.03337" transform="translate(18.26122 81.12492) rotate(-46.47596)"/>
        <rect x="98.7852" y="16.90624" width="5.52335" height="1.03371" transform="translate(21.96951 82.86601) rotate(-49.16906)"/>
        <rect x="109.6737" y="29.46413" width="5.52321" height="1.03364" transform="translate(1.78486 65.99531) rotate(-32.95953)"/>
        <rect x="112.47755" y="34.2626" width="5.5239" height="1.03389" transform="translate(-3.03131 57.17988) rotate(-27.51865)"/>
        <rect x="117.42726" y="47.2123" width="5.52488" height="1.0334" transform="translate(-8.0849 31.32021) rotate(-14.36907)"/>
        <rect x="118.53677" y="52.65732" width="5.52314" height="1.03351" transform="translate(-6.67202 19.05143) rotate(-8.74116)"/>
        <rect x="118.89807" y="55.4121" width="5.52418" height="1.03371" transform="translate(-5.08949 12.75758) rotate(-5.87991)"/>
        <rect x="119.13124" y="58.18124" width="5.52365" height="1.03351" transform="translate(-3.59208 8.13268) rotate(-3.7659)"/>
        <rect x="118.04491" y="49.92166" width="5.52444" height="1.03364" transform="translate(-7.66325 25.26379) rotate(-11.57411)"/>
        <rect x="116.68392" y="44.53426" width="5.52327" height="1.03354" transform="matrix(0.95539, -0.29536, 0.29536, 0.95539, -7.97732, 37.28922)"/>
        <rect x="114.8199" y="39.29991" width="5.52475" height="1.03348" transform="translate(-6.35066 46.99889) rotate(-22.02427)"/>
        <rect x="113.70813" y="36.75385" width="5.52319" height="1.0338" transform="translate(-4.89747 52.24776) rotate(-24.77974)"/>
        <rect x="115.81326" y="41.89565" width="5.52436" height="1.03341" transform="translate(-7.35337 41.47533) rotate(-19.25491)"/>
        <rect x="84.86065" y="7.8318" width="5.52332" height="1.03367" transform="translate(42.96261 84.19638) rotate(-64.95281)"/>
        <rect x="49.11214" y="1.36277" width="1.03353" height="5.52544" transform="translate(0.23433 10.46772) rotate(-12.06859)"/>
        <rect x="51.84012" y="0.83362" width="1.03411" height="5.52465" transform="translate(0.16419 9.08202) rotate(-9.92936)"/>
        <rect x="76.25308" y="117.47239" width="1.03338" height="5.52445" transform="translate(-27.12713 22.48292) rotate(-14.18732)"/>
        <rect x="57.35556" y="0.16304" width="1.03399" height="5.52451" transform="translate(-0.05913 4.23283) rotate(-4.18664)"/>
        <rect x="60.66471" y="2.25263" width="5.52361" height="1.03332" transform="translate(59.69846 66.14667) rotate(-89.13359)"/>
        <rect x="60.13121" y="0.0203" width="1.03347" height="5.52385" transform="translate(-0.04718 1.36239) rotate(-1.28653)"/>
        <rect x="46.41147" y="2.02063" width="1.03398" height="5.5232" transform="translate(0.35128 12.24655) rotate(-14.92326)"/>
        <rect x="38.5362" y="4.73856" width="1.03404" height="5.52239" transform="translate(0.22706 16.09798) rotate(-23.35757)"/>
        <rect x="41.11833" y="3.70888" width="1.03337" height="5.52317" transform="translate(0.3752 15.01265) rotate(-20.53055)"/>
        <rect x="43.74552" y="2.80315" width="1.03338" height="5.52408" transform="translate(0.40511 13.7303) rotate(-17.71264)"/>
        <rect x="66.21085" y="2.60831" width="5.5236" height="1.03337" transform="translate(57.85159 71.26687) rotate(-83.32496)"/>
        <rect x="82.31499" y="6.71588" width="5.52333" height="1.03405" transform="translate(46.17679 83.2405) rotate(-67.75652)"/>
        <rect x="63.44147" y="2.36679" width="5.52429" height="1.03351" transform="matrix(0.06614, -0.99781, 0.99781, 0.06614, 58.9475, 68.75146)"/>
        <rect x="77.08262" y="4.84433" width="5.52519" height="1.0335" transform="translate(51.84828 80.32888) rotate(-73.36298)"/>
        <rect x="36.00549" y="5.88647" width="1.03394" height="5.52442" transform="translate(-0.17388 16.52702) rotate(-25.4394)"/>
        <rect x="87.34789" y="9.06745" width="5.52444" height="1.03356" transform="matrix(0.46659, -0.88447, 0.88447, 0.46659, 39.58883, 84.81248)"/>
        <rect x="79.72187" y="5.71765" width="5.52403" height="1.03345" transform="translate(49.14744 81.93867) rotate(-70.55603)"/>
        <rect x="89.77753" y="10.41839" width="5.52404" height="1.03358" transform="translate(36.04451 85.03954) rotate(-59.41839)"/>
        <rect x="74.40754" y="4.09536" width="5.52379" height="1.03389" transform="translate(53.38794 78.17069) rotate(-75.50435)"/>
        <rect x="68.9649" y="2.97658" width="5.52332" height="1.03366" transform="translate(57.29649 73.84024) rotate(-81.19622)"/>
        <rect x="71.69834" y="3.47297" width="5.52372" height="1.03403" transform="translate(55.50371 76.10721) rotate(-78.33987)"/>
        <rect x="54.59008" y="0.43575" width="1.03346" height="5.52352" transform="translate(0.02342 6.7759) rotate(-7.03769)"/>
        <rect x="115.78082" y="85.08257" width="1.03357" height="5.52578" transform="translate(-12.82711 155.4381) rotate(-64.69621)"/>
        <rect x="114.53348" y="87.56826" width="1.03412" height="5.52364" transform="translate(-18.84417 149.22282) rotate(-61.87865)"/>
        <rect x="119.23256" y="60.95867" width="5.52364" height="1.03334" transform="matrix(0.99987, -0.01607, 0.01607, 0.99987, -0.97192, 1.96789)"/>
        <rect x="106.64249" y="98.96673" width="1.03387" height="5.52504" transform="translate(-39.9803 115.21573) rotate(-48.74786)"/>
        <rect x="116.9094" y="82.54499" width="1.03373" height="5.52428" transform="translate(-6.29838 161.19155) rotate(-67.5196)"/>
        <rect x="108.43104" y="96.83889" width="1.03343" height="5.52436" transform="translate(-36.83015 122.81293) rotate(-51.48097)"/>
        <rect x="110.11733" y="94.63101" width="1.03341" height="5.52362" transform="translate(-33.04446 130.28266) rotate(-54.25154)"/>
        <rect x="13.86076" y="100.06324" width="5.52359" height="1.03367" transform="translate(-60.61391 34.04295) rotate(-39.87172)"/>
        <rect x="117.9196" y="79.95555" width="1.03384" height="5.52396" transform="translate(0.70345 166.43325) rotate(-70.34618)"/>
        <rect x="121.37851" y="64.01813" width="1.03351" height="5.52429" transform="matrix(0.06611, -0.99781, 0.99781, 0.06611, 47.20209, 183.99371)"/>
        <rect x="118.80521" y="77.32204" width="1.03313" height="5.52437" transform="translate(7.05634 169.79287) rotate(-72.49553)"/>
        <rect x="121.09019" y="66.4584" width="1.03349" height="5.52411" transform="translate(38.66062 181.91308) rotate(-83.2946)"/>
        <rect x="121.45307" y="61.49153" width="1.0338" height="5.52426" transform="translate(53.56059 183.94227) rotate(-88.0296)"/>
        <rect x="119.56519" y="74.64779" width="1.03368" height="5.52522" transform="translate(14.82574 174.01877) rotate(-75.35463)"/>
        <rect x="120.20079" y="71.94401" width="1.03347" height="5.5236" transform="translate(22.98157 177.66873) rotate(-78.24307)"/>
        <rect x="120.70892" y="69.21103" width="1.03381" height="5.52422" transform="matrix(0.1538, -0.9881, 0.9881, 0.1538, 31.4648, 180.68742)"/>
        <rect x="113.1731" y="89.98997" width="1.03368" height="5.52396" transform="translate(-24.29338 142.64113) rotate(-59.08662)"/>
        <rect x="78.93418" y="116.74019" width="1.03399" height="5.52352" transform="matrix(0.95967, -0.28111, 0.28111, 0.95967, -30.38968, 27.15374)"/>
        <rect x="81.57715" y="115.88344" width="1.03369" height="5.52267" transform="translate(-34.36731 33.48157) rotate(-19.14302)"/>
        <rect x="84.17732" y="114.90026" width="1.03402" height="5.52418" transform="translate(-37.85004 40.19987) rotate(-21.95564)"/>
        <rect x="65.27667" y="119.12786" width="1.03406" height="5.52211" transform="translate(-7.17856 4.15715) rotate(-3.43191)"/>
        <rect x="73.54168" y="118.07931" width="1.03382" height="5.524" transform="translate(-22.32923 16.93421) rotate(-11.34768)"/>
        <rect x="104.75904" y="101.00959" width="1.03319" height="5.52477" transform="translate(-42.50234 107.41242) rotate(-45.99906)"/>
        <rect x="70.80271" y="118.5576" width="1.03375" height="5.52397" transform="translate(-17.13724 11.86496) rotate(-8.49395)"/>
        <rect x="68.04706" y="118.90569" width="1.03332" height="5.52407" transform="translate(-11.57611 7.29278) rotate(-5.61535)"/>
        <rect x="86.72867" y="113.80083" width="1.03339" height="5.52333" transform="translate(-40.76713 47.19845) rotate(-24.73446)"/>
        <rect x="100.71597" y="104.82273" width="1.03339" height="5.52299" transform="translate(-45.62872 91.64211) rotate(-40.5469)"/>
        <rect x="98.56746" y="106.58493" width="1.03354" height="5.52251" transform="translate(-46.22946 83.69068) rotate(-37.80612)"/>
        <rect x="102.781" y="102.96229" width="1.0342" height="5.52366" transform="translate(-44.38454 99.56568) rotate(-43.2771)"/>
        <rect x="91.6633" y="111.24547" width="1.03326" height="5.52322" transform="translate(-44.88503 61.96912) rotate(-30.25316)"/>
        <rect x="89.22598" y="112.57963" width="1.03389" height="5.52433" transform="translate(-43.13626 54.50886) rotate(-27.51631)"/>
        <rect x="96.33905" y="108.2458" width="1.03332" height="5.52354" transform="translate(-46.1955 75.79307) rotate(-35.06546)"/>
        <rect x="94.0354" y="109.80027" width="1.03418" height="5.52396" transform="translate(-46.05828 69.67816) rotate(-33.00879)"/>
        <rect x="111.69964" y="92.34656" width="1.03383" height="5.52466" transform="translate(-29.14743 135.78416) rotate(-56.33521)"/>
        <rect x="41.10819" y="118.53157" width="5.52361" height="1.03354" transform="translate(-82.92637 123.49418) rotate(-71.779)"/>
        <rect x="30.92374" y="114.11829" width="5.52289" height="1.03345" transform="translate(-82.99545 88.91523) rotate(-61.19387)"/>
        <rect x="35.91136" y="116.56441" width="5.52346" height="1.03378" transform="translate(-84.17469 106.49549) rotate(-66.79609)"/>
        <rect x="43.77052" y="119.3312" width="5.52342" height="1.03388" transform="translate(-81.35505 133.02653) rotate(-74.66419)"/>
        <rect x="33.38766" y="115.40056" width="5.52449" height="1.03336" transform="translate(-83.88253 97.59142) rotate(-63.99887)"/>
        <rect x="54.7011" y="121.26107" width="5.52505" height="1.03353" transform="translate(-68.4909 169.39471) rotate(-85.44766)"/>
        <rect x="57.47619" y="121.42633" width="5.5232" height="1.03406" transform="matrix(0.04061, -0.99918, 0.99918, 0.04061, -64.05118, 177.17944)"/>
        <rect x="62.49973" y="119.21812" width="1.03326" height="5.52274" transform="translate(-1.21551 0.63566) rotate(-0.57243)"/>
        <rect x="49.19122" y="120.55093" width="5.52235" height="1.0334" transform="matrix(0.17955, -0.98375, 0.98375, 0.17955, -76.47582, 150.43795)"/>
        <rect x="46.46477" y="120.00436" width="5.52506" height="1.03328" transform="translate(-79.09139 142.49714) rotate(-77.50056)"/>
        <rect x="51.93781" y="120.96807" width="5.52428" height="1.03408" transform="translate(-72.84115 160.00762) rotate(-82.56626)"/>
        <rect x="38.48664" y="117.60984" width="5.52428" height="1.03375" transform="translate(-83.81112 114.20201) rotate(-68.95376)"/>
        <rect x="19.63293" y="106.06913" width="5.52419" height="1.03314" transform="translate(-71.85225 52.0009) rotate(-48.05608)"/>
        <rect x="21.73575" y="107.88718" width="5.52411" height="1.03424" transform="translate(-75.01196 58.91246) rotate(-50.82213)"/>
        <rect x="23.92185" y="109.60346" width="5.52349" height="1.0338" transform="translate(-77.22015 64.92612) rotate(-52.87179)"/>
        <rect x="15.69147" y="102.15329" width="5.52428" height="1.03326" transform="translate(-64.62489 39.58576) rotate(-42.60004)"/>
        <rect x="17.61603" y="104.15744" width="5.52574" height="1.03375" transform="translate(-68.38826 45.57776) rotate(-45.32936)"/>
        <rect x="26.18438" y="111.21693" width="5.52382" height="1.0339" transform="translate(-79.62108 72.54873) rotate(-55.63)"/>
        <rect x="28.51955" y="112.72213" width="5.52388" height="1.03425" transform="translate(-81.56122 80.55618) rotate(-58.40477)"/>
        <path d="M73.14111,29.87305a1.47217,1.47217,0,0,1-.76172-.2876.29365.29365,0,0,0-.376.45117A2.05083,2.05083,0,0,0,73.105,30.459l.01856.00049a.29349.29349,0,0,0,.01757-.58642Z"/>
        <path d="M58.85059,40.09961a.29278.29278,0,0,0,.23632-.11914,4.319,4.319,0,0,1,.52979-.58838.27738.27738,0,0,0,.0249.04346l.11328.1665a.29348.29348,0,1,0,.48535-.33008l-.11328-.1665a.26794.26794,0,0,0-.02929-.03662.41614.41614,0,0,1,.09716-.02149.29367.29367,0,0,0,.36524-.46.62721.62721,0,0,0-.48975-.12939c-.62158.082-1.32177.99219-1.456,1.17383a.2934.2934,0,0,0,.23633.46777Z"/>
        <path d="M81.60889,96.79834v-2.3584a.28978.28978,0,0,0-.07325-.18262l-.00048-.001-.001-.00147a.30319.30319,0,0,0-.05176-.04492l-.00049-.00049-.00048-.00049-.001-.001a.29261.29261,0,0,0-.11084-.04541l-9.53516-1.95947a.31269.31269,0,0,0-.126.00146l-1.36084.31787-1.03223-6.86572a.28739.28739,0,0,0,.03857-.042,4.095,4.095,0,0,0,.73829-3.47022c-.5625-2.3833-.47315-2.8706-.26758-3.52246a16.17229,16.17229,0,0,1,.94922-1.34912A59.1712,59.1712,0,0,0,75.063,70.80664l.00439-.00732c-.019,1.68017-.04883,4.64209-.03174,4.96435l.00489.08936a5.08876,5.08876,0,0,1-.3291,2.77441A5.77624,5.77624,0,0,0,73.624,81.45215,6.08161,6.08161,0,0,1,73.606,83.082c-.103.2793-.666,2.02588-.67676,2.06983a1.99738,1.99738,0,0,0,.3081,1.37646,1.47953,1.47953,0,0,0,1.04688.56689,9.13744,9.13744,0,0,0,4.03076-.1958c.79785-.40332,1.48389-1.24853,1.20069-1.91259a2.6672,2.6672,0,0,0-.667-.83252,3.99066,3.99066,0,0,1-.438-.46289,2.41412,2.41412,0,0,1-.58789-1.57227,4.98672,4.98672,0,0,0,.22022-1.17969c-.05371-1.26123.08984-1.66357.18017-1.791.30957-.43506,2.48731-3.76319,2.57715-3.90137.04688-.06885,1.14356-1.74121,1.51075-6.44531a.25043.25043,0,0,0,.00048-.02686c1.21582-.10205,2.10157-.127,2.53614-.13281l-.0459.209L83.67285,71.273c-.07715.14893-1.88867,3.65723-2.20849,4.501-.02784.07226-.06495.16015-.1084.2622a9.5566,9.5566,0,0,0-.18262,7.61133l.625,2.29785c1.083,3.37647,1.51074,3.77246,2.86865,3.999a.28772.28772,0,0,0,.08692.00146,7.86705,7.86705,0,0,1-.32715,1.01172l-.06934.14307a6.80508,6.80508,0,0,0-.48242,1.20166,2.88522,2.88522,0,0,0-.09863,1.09521c.08008.86084.16308,1.75049,1.00244,1.85938a5.65259,5.65259,0,0,0,1.603-.1167,6.27943,6.27943,0,0,0,1.33447.34082l.20654.01465a2.15237,2.15237,0,0,0,1.28125-.15821,5.20053,5.20053,0,0,1,.54736-.27588,4.25969,4.25969,0,0,0,.72266-.38427c.05029-.03711,1.22559-.91065,1.2002-1.7085a8.3173,8.3173,0,0,0-1.36573-2.54785c-.00927-.03272-.02295-.082-.03955-.14551.64893.11621,2.55127.28662,8.59278.55029.69531.03077,1.03466.03955,1.40234.04932.27441.00732.56445.01465,1.03174.03223,2.57031.09961,8.41357-.53662,8.66113-.56348a.2936.2936,0,0,0,.03906-.57666c-1.2749-.32031-2.75293-5.04443-1.894-8.54053.07178-.292.15625-.626.251-.998,1.06787-4.20215,3.28955-12.94532,2.15771-22.7085-.69922-6.03906-1.46435-9.78076-2.5581-12.51172l-.00928-.02148a5.06058,5.06058,0,0,0,1.12793-2.70752,4.98223,4.98223,0,0,0-1.71631-3.56153,4.506,4.506,0,0,0-3.793-.9707l-1.85693.58106A6.73577,6.73577,0,0,0,97.21045,37.043a2.789,2.789,0,0,1-.90039-.064,4.15638,4.15638,0,0,0-2.15869-.22363.23123.23123,0,0,0-.03174-.00781,16.52148,16.52148,0,0,0-5.15869-.04346A7.08044,7.08044,0,0,0,87.1167,34.791v-.01026c.001-.0625.00146-.18066-.00195-.37988a7.46613,7.46613,0,0,0-.97559-2.584,14.00064,14.00064,0,0,0-6.58789-5.68847,8.31612,8.31612,0,0,0,.21387-2.04981,1.71639,1.71639,0,0,1,.12353-.43652,4.06365,4.06365,0,0,0,.1836-.61084,5.64683,5.64683,0,0,0-.84864-2.39111c-.11621-.24366-.228-.477-.32129-.6836A2.49712,2.49712,0,0,0,76.875,18.81445a5.38979,5.38979,0,0,0-3.89307-1.09228,11.63245,11.63245,0,0,0-2.43847.78515,14.08544,14.08544,0,0,0-1.207,1.21,4.11384,4.11384,0,0,0-4.16358.30419l-1.68652.21924c-.75635.09668-1.31738.42725-2.83594,2.22315a3.40344,3.40344,0,0,0-.66943,3.70947,4.59229,4.59229,0,0,0-1.53516.937c-.48144.42822-.57129,1.70361-.58789,2.21778l-.22607.02148a6.05976,6.05976,0,0,0-2.26807.7456c-.61914.25635-.97461.49708-1.05615.71534a.4592.4592,0,0,0,.01123.28955,1.461,1.461,0,0,0,1.39111.77295c.58838-.01026.74658-.01319.9419-.25684l.04736-.05713c.01074-.0122.021-.022.02637-.02978.21923.26709,1.42285,1.4082,1.98828,1.93457a2.58486,2.58486,0,0,0,2.70849.05615,3.89872,3.89872,0,0,1,.89844-.417c.395-.14014.80127-.28516.96191-.70264a6.55471,6.55471,0,0,0,1.4209-.42676,1.72018,1.72018,0,0,0,.58692-.47949.29493.29493,0,0,0,.05566-.06006c.44238-.52637.83252-.79248.94092-.75537,1.76855,4.436.05029,7.12549.03271,7.15186-.07763.11718-.54052,1.16552-.897,1.98291a1.566,1.566,0,0,0-.60693-.64649,1.4544,1.4544,0,0,0-.50488-.709,1.07784,1.07784,0,0,0-.7168-1.03711.78975.78975,0,0,1-.2207-.14063c-.124-.459-.78321-.8374-1.03711-.96777a2.47622,2.47622,0,0,0-1.47852-.76123,5.14955,5.14955,0,0,0-1.9209.49512,2.37551,2.37551,0,0,0-1.26758.12793,2.25682,2.25682,0,0,0-2.36523,1.26074,3.8982,3.8982,0,0,0-1.13135,1.25635,39.84607,39.84607,0,0,0-1.2666,4.44384c-.06885.50879-.09424.76172-.10889.90625a.838.838,0,0,1-.07031.30567,4.34521,4.34521,0,0,1-.46094.627c-.5625.69824-1.33349,1.65479-1.228,2.43945a.99181.99181,0,0,0,.15722.42286c-1.061.78173-4.48144,3.84423-3.7998,10.39746A27.88094,27.88094,0,0,0,44.522,57.29a1.70165,1.70165,0,0,0-.686-.43945,5.35071,5.35071,0,0,1-1.373-.731,2.55944,2.55944,0,0,0-1.47559-.62207,8.85763,8.85763,0,0,1-1.48486-3.064,16.87087,16.87087,0,0,1-.7583-5.0913,13.33569,13.33569,0,0,0-1.47021-4.9629c-.08594-.18994-.16065-.35351-.21729-.48535-.0249-.05859-.04687-.11328-.06641-.16455l1.81006-.90869a2.21592,2.21592,0,0,0,.14063,1.40137,4.66361,4.66361,0,0,0,3.93457,2.96826c.26709.02393,2.7168.11621,2.8208.12012a.31569.31569,0,0,0,.10449-.01465c.93164.52832,2.27832,1.22314,3.62256.31152a1.70715,1.70715,0,0,0,.7832-1.89941,1.56625,1.56625,0,0,0,.585-.80811.986.986,0,0,0-.12841-.76513l-.21289-.34864,1.0332-.17285a1.51741,1.51741,0,0,0,.80859-.58594.54028.54028,0,0,0,.02735-.42334.29406.29406,0,0,0-.22364-.1914c-.22412-.04151-1.352-.24951-1.5415-.26074-.12109-.00733-1.05176-.14356-1.60986-.228a.29092.29092,0,0,0-.07959-.001l-.53125.06543-.648-.17236-.00293-.0127c-.166-.62158-1.44824-1.60693-1.93116-1.96045.38038-.207.44532-.31836.478-.4331a8.35158,8.35158,0,0,0,.10254-1.61279.29165.29165,0,0,0-.02051-.10352,4.0858,4.0858,0,0,0,.61133-2.22607l1.29883.70556a4.096,4.096,0,0,0,1.72949.57373.703.703,0,0,0,.67774-.73047.71156.71156,0,0,1,.22314-.26025,1.18333,1.18333,0,0,0,.50293-.42236,1.796,1.796,0,0,0,.74121-.17627,2.134,2.134,0,0,0,.34375-.30371.75564.75564,0,0,0,.61328.14355c.26367-.07129.43848-.31152.52-.71533a22.45816,22.45816,0,0,1,1.02149-2.9126c.09668-.24121.17187-.4292.20752-.52783a2.28329,2.28329,0,0,1,.22607-.45557,1.72669,1.72669,0,0,0,.84033.11817c.874-.13428,1.05664-.53809,1.12012-.916l-.28955-.04883.31006-.0459c.57129-2.269-.3003-3.02148-.96143-3.2705-.23193-.45557-1.14355-2.00537-2.73974-1.79151A6.762,6.762,0,0,0,48.896,21.16162c-.42823-.07226-3.30567-.50879-4.45313.40869a1.28255,1.28255,0,0,0-.47119.7378c-.8877.16064-2.83252.62158-2.959,1.58984a1.22347,1.22347,0,0,0-.3545.10742,1.9133,1.9133,0,0,0-.958,1.41065,7.69148,7.69148,0,0,0-2.67334-.56446c-.17188-.00439-.28125-.002-.28711.00049a23.2926,23.2926,0,0,0-5.67823.03223l-.82519.18164a19.13017,19.13017,0,0,0-4.58545,1.3374,6.60015,6.60015,0,0,0-1.48047,1.582,5.70007,5.70007,0,0,1-1.2085,1.3208c-.11084.06494-.22851.12989-.34961.19629a3.72861,3.72861,0,0,0-2.18066,2.36377c-.05127.20117-.09961.43213-.146.68213-.32177.08838-2.43359.79-4.438,4.42627-.01319.01611-1.35157,1.61719-1.80616,2.021a1.30489,1.30489,0,0,0-.32714,1.00537,3.12108,3.12108,0,0,0,.623,1.97412c.06543.05957.15528.1626.26856.29.14355.16211.31982.36132.52539.56982-.34864.46533-.78272,1.56836.44433,3.58106-.62451.43066-2.00146,1.8208-2.49755,5.88427a41.29474,41.29474,0,0,1-.87354,6.895A23.63458,23.63458,0,0,1,8.33984,64.4834a1.54332,1.54332,0,0,0-.32129.63476,1.394,1.394,0,0,0,.53272,1.416l1.94336,1.34375a.324.324,0,0,0,.17334.05176.51044.51044,0,0,0,.04248.16943c.04736.18213.21582.32178.582.48242a15.00092,15.00092,0,0,0,2.66113.74366.83278.83278,0,0,0,.52149.18652c.18554.01123.35888.01855.521.0249.79541.03272,1.23389.05029,1.61036.47363a3.0472,3.0472,0,0,0,.83886.72022.28326.28326,0,0,0,.07032.02588,6.55825,6.55825,0,0,0,.83691.12011,3.47058,3.47058,0,0,0-1.78076,2.18262c-.0166.15332-.0459.33936-.0791.54688-.16846,1.064-.42286,2.67236.40283,3.62109a2.39257,2.39257,0,0,0,1.90039.72412.44783.44783,0,0,0,.21973-.0376,13.14746,13.14746,0,0,0,1.70947-1.12939,5.966,5.966,0,0,0,.896,2.56006c.02784.03418.0586.06982.09278.10742A6.29684,6.29684,0,0,0,23.001,84.791a1.94438,1.94438,0,0,0-.52735,1.13623l-.01123.208a6.72243,6.72243,0,0,1-.48974,2.48438c-.01514.0332-1.53467,3.36865-1.40528,4.1709a12.50061,12.50061,0,0,0,1.10694,2.36767c.15771.29493.27929.51856.29492.5376a1.49067,1.49067,0,0,0,.627.73828,3.83369,3.83369,0,0,0,.87891.105c.03711-.00146.11084.00537.188.01221a1.55591,1.55591,0,0,0,.49316,0c.477-.10547.72754-.29981.74414-.57666l.00391-.12549c.00049-.043.00146-.10742.00634-.14892a2.01626,2.01626,0,0,0,.73633-1.12452.3689.3689,0,0,0-.2539-.34375c-.23975-.07812-.65869-.22021-.86866-.29492a1.86126,1.86126,0,0,0-.207-.06055c-.17871-.04443-.23144-.0664-.26025-.13476l-.063-.13916c-.09668-.2085-.1123-.25879-.07031-.36865a1.48141,1.48141,0,0,1,.54492-.56739l.06836-.04736a14.05085,14.05085,0,0,1,2.86426-1.77246,3.80808,3.80808,0,0,1,1.63769.59717,45.9237,45.9237,0,0,0,4.70606,3.69385c.17578.0791.47851.24267.85791.44628a16.063,16.063,0,0,0,4.50586,1.895,43.96716,43.96716,0,0,1,5.23047,1.03077c1.08544.30224,3.73877.853,4.94482-.53418.36328-.416.65576-.6958.89111-.92041a1.87523,1.87523,0,0,0,.79053-1.31348c.00928-.105.0249-.23779.043-.3916.11328-.97754.32471-2.79737-.26856-3.80762a17.42287,17.42287,0,0,0-1.26464-1.8623.29287.29287,0,0,0-.08008-.06983l.00879-.04492a3.72337,3.72337,0,0,0-.50977-2.66357,2.04136,2.04136,0,0,1-.11865-.23c-.05908-.16846-.37647-1.124-.74658-2.2793-.24463-.76386-.45649-1.43921-.6399-2.03607.22089-.19458.87561-.781,1.56556-1.48377.63452.67059,4.88714,5.10938,6.59387,5.45148a.35887.35887,0,0,0,.14648.03369,15.66043,15.66043,0,0,0,3.90381-.68994,10.30089,10.30089,0,0,0,1.54834-.70117c1.02149-.53418,1.8335-.9585,2.86963-.41407.01855.03858.03857.07715.06055.11524a2.07536,2.07536,0,0,0,.45263.5459l.22705,3.71924a1.40121,1.40121,0,0,0,.29151.96923.74294.74294,0,0,0,.2876.187l-.52149,3.72705L55.624,95.97266a.17315.17315,0,0,0-.03369.00195.29378.29378,0,0,0-.26025.2915l-.002,2.35205a.293.293,0,0,0,.1997.27832l9.083,3.06446a.29228.29228,0,0,0,.09375.01513.30177.30177,0,0,0,.083-.01171l16.61084-4.88428A.29312.29312,0,0,0,81.60889,96.79834Zm-11.835-4.1416-.03955.00928-1.60254-4.356a.29294.29294,0,0,0-.272-.1919h-.00341a.29253.29253,0,0,0-.27295.18555L65.46777,93.6626l-.03955.00928.53028-3.78858.00195-.02051a4.86367,4.86367,0,0,0,.46143-1.19287,12.81224,12.81224,0,0,1,1.14794-3.23242,1.80305,1.80305,0,0,1,1.0542-.72119l.07373.77881Zm-.61622.14355-2.99414.69922,1.68311-4.26367ZM80.31152,74.92236c-.02295.03467-2.26416,3.46-2.56738,3.88623a4.24112,4.24112,0,0,0-.28662,2.19,4.58341,4.58341,0,0,1-.19971.96,2.908,2.908,0,0,0,.68653,2.08984,4.51561,4.51561,0,0,0,.499.53125,2.21407,2.21407,0,0,1,.53271.63916c.10889.25488-.29687.83887-.92578,1.15625a8.86655,8.86655,0,0,1-3.69238.13721.90572.90572,0,0,1-.64941-.334,1.43528,1.43528,0,0,1-.209-.89258v.00049c.02051-.06445.55713-1.73.65772-2.00244a6.23328,6.23328,0,0,0,.0498-1.8999,5.43962,5.43962,0,0,1,.9834-2.4165,5.75818,5.75818,0,0,0,.43652-3.14551l-.00439-.08789c-.01807-.333.02-3.957.04346-5.94043a50.94725,50.94725,0,0,1,6.05371-.96485C81.36133,73.2915,80.32373,74.90381,80.31152,74.92236Zm2.04981,10.856L81.73,83.46338a8.91579,8.91579,0,0,1,.1665-7.19775c.04639-.10938.08594-.20264.11622-.28174.30908-.814,2.16308-4.40528,2.187-4.45215L85.354,69.041l.30079-1.29a37.97666,37.97666,0,0,0,.76757-4.46241,12.53476,12.53476,0,0,0-.70556-3.73584,3.44078,3.44078,0,0,1-.1294-1.88671c.04151-.32276.30225-1.37256.53174-2.29883.18787-.75867.34735-1.40589.41077-1.735l3.61072-.18249a5.82719,5.82719,0,0,0,2.03369-.65088.29388.29388,0,0,0-.31055-.499,5.31717,5.31717,0,0,1-1.773.565l-5.34131.269a.29363.29363,0,0,0,.01416.58691h.01514l1.14673-.058c-.078.358-.2284.96558-.37671,1.56335-.24463.9878-.498,2.00879-.54346,2.36329A3.9712,3.9712,0,0,0,85.1709,59.77a11.90134,11.90134,0,0,1,.66553,3.4834,38.09175,38.09175,0,0,1-.75342,4.36377l-.103.436c-.40137.002-1.46094.022-3.01221.16162a51.38629,51.38629,0,0,0-6.06591.92627,9.71137,9.71137,0,0,0,1.08935-4.49267l1.82861-3.90772a.26428.26428,0,0,0,.01661-.17383,3.73,3.73,0,0,0,1.20117-.81884c.71679-.80518,2.65967-4.00977,2.7417-4.146a.26427.26427,0,0,0,.03125-.07129,10.42229,10.42229,0,0,0,.55078-.90283l.03845-.0965a.27486.27486,0,0,0,.06262-.07928c.05329-.1402.104-.29126.15308-.44586.235-.56073.60486-1.40778.99634-2.15863.07519-.04053.1748-.09766.28076-.15918.17627-.102.44287-.25586.52832-.28711,2.105-.772,2.87549-3.53711,2.91748-3.71973,0,0,.00195-.05273.00342-.148,1.10888,1.30127,3.88232,4.23828,6.94336,5.07666a46.66427,46.66427,0,0,0-6.36927,10.33637,27.10713,27.10713,0,0,1-.10632-3.53315.29347.29347,0,0,0-.58594-.03418,28.3692,28.3692,0,0,0,.20215,4.54444c.00275.02417.02319.03827.03131.06006a56.39564,56.39564,0,0,0-4.3399,16.666c-.001.01557.01019.02753.01159.04267a1.452,1.452,0,0,0-.01989.59112c.15283.78662.96533,1.40479,2.41552,1.83789a.2765.2765,0,0,0,.07618.01123.25368.25368,0,0,0,.06317-.02075,9.40293,9.40293,0,0,1-.42743,1.56372,12.27174,12.27174,0,0,0-1.18018,3.66065,5.48254,5.48254,0,0,1-.16943,1.07959.29684.29684,0,0,0-.123-.05079C83.77441,89.2002,83.44141,89.14453,82.36133,85.77832ZM70.98584,47.689c-.00732-.03564-.01611-.07812-.0249-.123a.23918.23918,0,0,0-.00733-.03809.99565.99565,0,0,1-.02783-.41748c.25537-.14306.35254-.46.46485-.82666a3.4048,3.4048,0,0,1,.28271-.72119.841.841,0,0,1,.56885-.43457,1.3792,1.3792,0,0,0,1.104-1.01807c.11621-.29736.18213-.44336.40723-.51074a6.07052,6.07052,0,0,0,1.22851-.56836,3.03,3.03,0,0,1,.51856-.25976,3.91106,3.91106,0,0,0,1.19873-.32276c.2251-.07959.4248-.15234.52246-.17285.13818-.02246.481-.07715.83887-.11426a6.09011,6.09011,0,0,1,.64843-.043,1.94424,1.94424,0,0,1,.20411.00928,9.80138,9.80138,0,0,0,1.25439.57422,4.03419,4.03419,0,0,0,.96924.2959,8.15109,8.15109,0,0,1,1.09326.32812,4.86448,4.86448,0,0,0,.93555.273,2.51423,2.51423,0,0,1,.69726.1084c-.01806.04981-.03759.09815-.05615.144-.0874.2168-.24951.6211.12988.80176a2.22923,2.22923,0,0,1,.47119.28809c-.01611.03418-.03515.07275-.05126.10547a1.11792,1.11792,0,0,0-.18213.75293,3.45713,3.45713,0,0,0,.38818.727,5.05654,5.05654,0,0,1,.31543.55713.56142.56142,0,0,1-.02393.561.771.771,0,0,0-.34082.50928.40335.40335,0,0,0,.10938.30224.35773.35773,0,0,1-.07666.26026,2.42347,2.42347,0,0,0-.34522.45215,3.13525,3.13525,0,0,1-.18945.27246,4.49163,4.49163,0,0,0-.30518.41113,4.14618,4.14618,0,0,1-.49414.63623,1.31421,1.31421,0,0,1-.3042.07422c-.29882.05176-.67041.11621-.76708.4375a1.99841,1.99841,0,0,1-.915.36426h-.00342a1.37222,1.37222,0,0,0-.54883.16992c-.19873.08594-.687.26807-.75586.28125a2.58683,2.58683,0,0,1-.08252-1.30469,1.15862,1.15862,0,0,1,.23486-.32373,1.41232,1.41232,0,0,0,.28272-.39892,1.05321,1.05321,0,0,0-.08789-.96045l-.05078-.0542c-.31836-.32764-.30078-.46924-.15332-.61914a13.05385,13.05385,0,0,0,1.61718-2.7627,1.51083,1.51083,0,0,0-.13818-1.36816,12.65468,12.65468,0,0,0-1.54834-.92285,10.86365,10.86365,0,0,0-2.09717-.40821l-.03466.00049c-.07032.0044-.17188.00147-.28858-.001A3.03688,3.03688,0,0,0,76.064,42.897a9.014,9.014,0,0,1-.83789.39453,4.87178,4.87178,0,0,0-.689.33106c-.20166.144-.8833.77734-.95117.84082l-1.05713.90381a5.88621,5.88621,0,0,0-1.43164,3.5874.42757.42757,0,0,1-.05762-.33887A2.05806,2.05806,0,0,0,70.98584,47.689Zm1.9375-1.88671,1.05371-.90088c.28027-.26074.77246-.709.8999-.79981.06543-.0459.35254-.1709.5835-.27148a8.98406,8.98406,0,0,0,.91064-.43262,3.10616,3.10616,0,0,1,1.18848-.11865c.13379.00244.24707.00488.32861.001a9.53972,9.53972,0,0,1,1.85694.354c.20117.0918,1.24316.68555,1.35156.7749a1.01614,1.01614,0,0,1,.03076.77832,12.93933,12.93933,0,0,1-1.48877,2.5586c-.2334.23779-.52392.74023.17481,1.45654a.59642.59642,0,0,1-.00684.3706,1.19283,1.19283,0,0,1-.17432.22217,1.54438,1.54438,0,0,0-.35693.5376,3.13612,3.13612,0,0,0,.10254,1.71436.51052.51052,0,0,0,.2876.2788,1.79032,1.79032,0,0,0,1.2417-.25293c.11181-.04834.26513-.11474.28027-.12255.21875.01757,1.34814-.25782,1.48486-.72266a1.222,1.222,0,0,1,.33594-.08643,1.28582,1.28582,0,0,0,.54981-.17871A3.52779,3.52779,0,0,0,84.189,50.186a3.82348,3.82348,0,0,1,.25684-.35059,3.50943,3.50943,0,0,0,.24561-.34424,2.39862,2.39862,0,0,1,.24511-.33594.879.879,0,0,0,.20069-.97558c.03222-.03076.07275-.06592.10351-.09326l.05664-.04981a1.11589,1.11589,0,0,0,.13282-1.15332,4.45285,4.45285,0,0,0-.36719-.66357,5.36587,5.36587,0,0,1-.31934-.56153,1.3245,1.3245,0,0,1,.13867-.35058,1.61914,1.61914,0,0,0,.126-.29737c.09326-.35742-.35351-.65722-.69971-.83056.01368-.03614.0293-.07617.043-.10987.03614-.08984.0752-.1875.10645-.293a.45753.45753,0,0,0,.00915-.16065,3.2857,3.2857,0,0,1,2.19837.58692,3.24217,3.24217,0,0,1,1.0722,2.54675l-.00091.00256c.02685.49268.0166.84668.023.84668-.04053.1416-.76709,2.6001-2.54151,3.251a5.21009,5.21009,0,0,0-.61963.33008c-.14013.081-.26611.15478-.32617.18261-.02118.00971-.03149.03253-.04962.04676.01642-.09424.0285-.16529.03058-.1781a.29384.29384,0,0,0-.24317-.33692.29778.29778,0,0,0-.33691.24317,22.9831,22.9831,0,0,1-.60645,2.65673c-.14428.34607-.23236.5727-.23584.584a10.22336,10.22336,0,0,1-.55615.895c-1.46533,2.103-2.67431,1.85986-3.063,1.70508l.33545-.20264a.29376.29376,0,1,0-.30371-.50293l-.58935.35644a.29443.29443,0,0,0-.08643.07959c-.30078-.12158-.604-.24218-.604-.24218a.29232.29232,0,0,0-.30957.05908l-.59961.56494c-.49854.07715-.876-.895-1.05957-1.36768-.04346-.1123-.08057-.207-.11231-.27587a1.38072,1.38072,0,0,0-1.02051-.75782c-.10742-.00683-.49462-.07715-.65478-.10644-.62305-.48389-1.5083-1.19483-1.63086-1.34668a4.294,4.294,0,0,1-.81836-1.91358,9.6575,9.6575,0,0,1-.106-1.895A5.6612,5.6612,0,0,1,72.92334,45.80225Zm-.5498,8.05029c.45507.40283,1.32421,1.07812,1.53076,1.23828a.29156.29156,0,0,0,.126.05615c.106.02.64258.11914.79639.12842a.81395.81395,0,0,1,.52441.42188c.02686.05712.05811.13964.0962.23779.25341.65576.78369,2.02051,1.83447,1.70557a.28828.28828,0,0,0,.11719-.06739l.52148-.49121c.28418.11328.82861.33106.95166.3877a2.27452,2.27452,0,0,0,2.15527-.168,21.97027,21.97027,0,0,1-1.42871,2.05664,3.99314,3.99314,0,0,1-1.49072.87646c-.44287.16846-.80957.25977-.80566.26075l-6.1045.73291c-.17529-.60254-.6372-2.21436-.86132-3.22559-.24952-1.13232,1.17627-2.98193,1.41308-3.14941A2.47584,2.47584,0,0,0,72.37354,53.85254ZM84.65479,80.83008a10.60371,10.60371,0,0,1,1.03613-1.39356c.38037-.30078.98584-.77881,1.71631-1.36377-.09912.8927-.34339,2.94239-.65644,4.59937-.02551-.02008-.04107-.05048-.074-.0603-1.22705-.36621-1.93457-.85987-2.04541-1.42774a.93322.93322,0,0,1,.00335-.33856C84.6402,80.83868,84.6499,80.83752,84.65479,80.83008ZM91.0874,92.98291c.01026.32813-.55176.91992-.96435,1.22314a4.05474,4.05474,0,0,1-.61768.32227,5.69655,5.69655,0,0,0-.61523.313,1.832,1.832,0,0,1-.92383.06836L87.751,94.895a6.29525,6.29525,0,0,1-1.24707-.335.29964.29964,0,0,0-.10108-.01758.27734.27734,0,0,0-.06347.00684,5.72,5.72,0,0,1-1.48389.12548c-.33936-.04443-.41113-.43945-.49414-1.33154l-.00733-.07617a2.21485,2.21485,0,0,1,.08789-.811,6.21428,6.21428,0,0,1,.44336-1.09814l.07276-.1499a10.70788,10.70788,0,0,0,.68506-2.8794,13.12994,13.12994,0,0,1,1.13525-3.42529c.69189-1.65088,1.23877-6.99463,1.26172-7.22119a.28554.28554,0,0,0-.00977-.11035C91.15967,75.04688,95,71.81982,96,70.419a3.42307,3.42307,0,0,1,.4873-.54639c.10694,5.48584-4.44921,12.74267-6.19384,15.521-.353.562-.58594.9336-.6875,1.13575a6.00058,6.00058,0,0,0,0,3.50976c.084.36035.15185.59229.15185.59229a.29192.29192,0,0,0,.042.08789A8.85961,8.85961,0,0,1,91.0874,92.98291Zm10.231-2.6626c-.4707-.01758-.7627-.02539-1.03857-.03271-.36475-.00928-.70166-.01807-1.39209-.04883-.63233-.02734-1.21827-.0542-1.7627-.07959a.30247.30247,0,0,0-.06934-.02588c-1.93066-.44726-4.40087-3.21289-4.42578-3.24072a.29366.29366,0,1,0-.43945.38965,16.32209,16.32209,0,0,0,3.27393,2.79492,44.14506,44.14506,0,0,1-5.21045-.39307.29334.29334,0,0,0-.13477-.05566,4.98789,4.98789,0,0,1,.01221-2.83594c.08838-.17676.32812-.55859.65967-1.08643a59.29133,59.29133,0,0,0,4.46234-8.23638c1.03936,1.17065,2.10992,2.34271,3.08026,3.39044a.27712.27712,0,0,0-.05774.15014c.15381,6.04932,2.89746,8.42188,4.5415,9.30323C102.251,90.33252,101.73633,90.33594,101.31836,90.32031Zm8.60937-32.73291c1.01087,8.7218-.68719,16.62958-1.80639,21.15143-.05145-1.25073-.15607-2.811-.27124-4.50787-.293-4.32422-.65821-9.70606-.23633-12.11817a24.6957,24.6957,0,0,0-.00049-8.05322.29767.29767,0,0,0-.34375-.23291.294.294,0,0,0-.2334.34375,24.55287,24.55287,0,0,1-.00049,7.84082c-.43457,2.48291-.082,7.67676.22852,12.25928a55.57882,55.57882,0,0,1,.26074,6.77295c-.00171.01269.00916.02179.0091.0343l-.00226.00915c-.73633,2.99659.12109,7.2793,1.5459,8.75782-1.07569.1084-3.04444.29443-4.8545.40234a.29566.29566,0,0,0-.07812-.02686c-.04926-.00958-4.86267-1.04394-5.25226-8.75811,1.65863,1.78051,2.90015,3.06939,2.92072,3.09112a.29387.29387,0,1,0,.42285-.4082c-.03516-.03613-3.522-3.6543-6.65088-7.18555-.0282-.03186-.06952-.035-.10577-.05151a17.98806,17.98806,0,0,0,1.57843-7.45776,6.38547,6.38547,0,0,1,3.5996-.6919.298.298,0,0,0,.32764-.25488.29347.29347,0,0,0-.2539-.32813A6.74523,6.74523,0,0,0,96.542,69.085a4.03166,4.03166,0,0,0-1.01953.99268c-.76709,1.07422-3.62988,3.63086-8.061,7.19824-.917.73828-1.6836,1.34375-2.165,1.72363a2.01656,2.01656,0,0,0-.25086.27332c-.04388.03723-.12054.10858-.2204.21155.46827-3.89081,2.59192-16.53913,11.10407-26.73047a5.544,5.544,0,0,0,1.38574.06591L95.1709,61.231a.29381.29381,0,1,0,.56933.1455l2.20411-8.647.00048-.00342a4.96981,4.96981,0,0,0,1.77491-.77783c.17627-.1206.44091-.28027.7539-.46875,1.14209-.68847,2.85938-1.72363,3.47412-2.751l2.5293-2.06543a12.6633,12.6633,0,0,0,1.04834-1.13477C108.53662,48.18311,109.26025,51.82471,109.92773,57.5874ZM96.3208,37.6582a.28814.28814,0,0,0,.04834-.05859,5.14943,5.14943,0,0,0,.84912.03076,6.19937,6.19937,0,0,1,4.25195,1.25586.29525.29525,0,0,0,.26661.04736l1.959-.61621a3.93907,3.93907,0,0,1,3.27783.84668,4.36366,4.36366,0,0,1,1.51075,3.11524c0,1.68506-2.38379,3.93164-2.39307,3.9414l-2.55615,2.08643a.29673.29673,0,0,0-.07032.0835c-.5122.90869-2.2539,1.95849-3.29443,2.58593-.24219.146-.45605.2749-.625.3833-4.2168-1.13769-6.647-2.87793-7.22314-5.17285C91.39844,42.50928,95.49072,38.4375,96.3208,37.6582Zm-.59033-.24756c-1.17236,1.14258-4.92285,5.1587-3.978,8.91944.60645,2.41455,2.99707,4.2456,7.10938,5.44775a4.50655,4.50655,0,0,1-3.03907.3584c-3.8208-.79315-7.45208-5.49048-7.51782-5.576a4.93193,4.93193,0,0,0-.29443-1.4245.27587.27587,0,0,0,.09643-.18353c.01075-.05518,1.76416-5.83838,5.35938-7.32617A3.09576,3.09576,0,0,1,95.73047,37.41064Zm-2.7168-.22558c-3.103,1.42877-4.8999,5.8034-5.365,7.24841a2.99384,2.99384,0,0,0-.62036-.69226,4.117,4.117,0,0,0-3.07764-.65918c-.01727.00348-.02465.021-.04052.02722a3.95985,3.95985,0,0,0-.71924-.09753,8.03587,8.03587,0,0,1-.771-.2417,6.53335,6.53335,0,0,0-1.24609-.3584,3.95074,3.95074,0,0,1-.79151-.25635,9.51913,9.51913,0,0,1-1.14794-.51953c-.10694-.06933-.28174-.125-.79053-.09717a6.63392,6.63392,0,0,1,2.10547-1.55712l.14111-.06739C82.80029,38.8877,88.03223,36.67627,93.01367,37.18506Zm-7.38086-5.0708a7.21557,7.21557,0,0,1,.894,2.2622,12.20206,12.20206,0,0,0-2.15381-1.15087.29351.29351,0,1,0-.22071.54394,11.96038,11.96038,0,0,1,2.43457,1.36133,7.40253,7.40253,0,0,1,1.73438,1.66992,30.13408,30.13408,0,0,0-7.80078,2.54248c-3.31592-2.36963-2.99268-4.71435-2.93262-5.02392a3.1938,3.1938,0,0,0,.34229-.37745,2.94088,2.94088,0,0,0,.231-1.98291c-.01074-.08837-.0205-.15625-.021-.18652a1.007,1.007,0,0,1,.36035-.59814,2.24167,2.24167,0,0,0,.43457-1.57422l.00146-.07227a1.30531,1.30531,0,0,1,.23926-.25879,3.10751,3.10751,0,0,0,.24365-.24463c.21778-.2583.12891-.76953-.03173-1.51953-.03321-.15478-.062-.28759-.07227-.37011a1.117,1.117,0,0,1,.04883-.44825A13.65605,13.65605,0,0,1,85.63281,32.11426ZM69.5376,20.37891a.27863.27863,0,0,0,.167-.15918.39358.39358,0,0,0,.01514-.0503,14.43764,14.43764,0,0,1,1.187-1.20068,12.50451,12.50451,0,0,1,2.17334-.66895c.02441-.00244,2.26953-.21484,3.45459,1.00391a.29174.29174,0,0,0,.19873.08887c.01318.00049,1.29687.07129,1.63428.80762.09472.20849.208.4458.32617.69335a8.43917,8.43917,0,0,1,.80176,2.02637,3.46842,3.46842,0,0,1-.15967.52295,1.51653,1.51653,0,0,0-.14844.74219,8.22428,8.22428,0,0,1-.23145,1.88232l-.0498.13623a2.13081,2.13081,0,0,0-.17383,1.001c.01123.09473.04346.24658.08106.42334a5.22213,5.22213,0,0,1,.15869,1.01611,2.55646,2.55646,0,0,1-.19629.19483,1.04125,1.04125,0,0,0-.42285.63867l-.00489.09912c-.03662.92676-.17382,1.10645-.21386,1.13867a1.573,1.573,0,0,0-.58008,1.02246,2.20817,2.20817,0,0,0,.02393.293c.04443.36328.14843,1.21436-.11133,1.55029a2.60352,2.60352,0,0,1-.29151.31983.84447.84447,0,0,0-.55175.16748l-.33106.23682a.29474.29474,0,0,0-.11621.17627,7.89882,7.89882,0,0,1-.26416.95117c-.12549-.16553-.29-.4126-.43408-.647l.59619-2.0996.27344-2.69092,2.06982-3.417a.30411.30411,0,0,0,.03906-.10108,3.64128,3.64128,0,0,0-.56543-1.98584A4.691,4.691,0,0,1,76.959,23.3208c-.04443-.31348-.27929-1.293-.28906-1.33447a.29427.29427,0,0,0-.1914-.21.2992.2992,0,0,0-.2793.05029c-.61475.49854-1.61475,1.28955-1.84668,1.42188a4.00144,4.00144,0,0,1-1.25781-.04346c-.15235-.02-.27784-.03613-.354-.04a1.71525,1.71525,0,0,0-1.45068.69189c-.17627.35547-.77441,1.416-.92041,1.62012a5.83632,5.83632,0,0,0-.40625,2.06885,1.03633,1.03633,0,0,1-.21777.55762l-.08106.11621a2.35261,2.35261,0,0,0-.2998.51025,1.67327,1.67327,0,0,0,.0166,1.001c.03222.148.06836.31152.09326.50049a6.52383,6.52383,0,0,1-.105,1.79687.71359.71359,0,0,1-.40283.07861c-.04737-.00341-.12842-.01025-.40576.1211.03222-.18408.06445-.36084.08349-.44434.0376-.19043-.0581-.46777-.40674-1.32275-.10449-.25635-.20117-.49219-.24414-.63086a32.47965,32.47965,0,0,1-.50342-3.87793,10.752,10.752,0,0,1,.50635-1.9419,7.812,7.812,0,0,0,.23194-.79541,10.88778,10.88778,0,0,1,.81836-2.18847A4.84037,4.84037,0,0,1,69.5376,20.37891ZM74.98193,27.853a4.18679,4.18679,0,0,0,.39942.20312l-.042.18457a.29389.29389,0,1,0,.57324.12989l.02344-.1045a3.811,3.811,0,0,0,.666.14551l-.78613,1.28027-.002.00293a.2931.2931,0,0,0-.04833.02979,6.45056,6.45056,0,0,1-3.51856,1.16748c-.95752-.25293-1.6543-2.021-1.8418-2.68115a.30529.30529,0,0,0-.01611-.04346,1.37554,1.37554,0,0,0,.16113-.61816,5.98127,5.98127,0,0,1,.29785-1.73194c.17481-.24463.792-1.34472.96973-1.70263A1.2322,1.2322,0,0,1,72.707,23.751c.06738.0039.17725.019.31055.03662a3.11466,3.11466,0,0,0,1.62451-.02783c.25439-.14551,1.07324-.792,1.563-1.1836.07178.31494.15137.67627.17236.82471a4.3933,4.3933,0,0,0,1.12451,1.52978,3.91677,3.91677,0,0,1,.37842,1.39991l-.93213,1.51709c-.01025-.001-.021-.002-.03174-.002a3.85748,3.85748,0,0,1-1.6333-.49658.29355.29355,0,0,0-.30127.50391ZM62.75879,32.09375c-.03125.21875-.15625.28564-.63477.456a4.47717,4.47717,0,0,0-1.02734.48145,2.00917,2.00917,0,0,1-2.021-.02734H59.0752c-.72022-.67871-1.78272-1.69776-1.88672-1.83448a.53078.53078,0,0,0-.41065-.24414.62486.62486,0,0,0-.51855.24512l-.06006.08838a3.81909,3.81909,0,0,1-.499.02734.96924.96924,0,0,1-.76807-.3125,4.67636,4.67636,0,0,1,.69287-.354,5.63584,5.63584,0,0,1,2.05322-.68457c.11866-.00928.23145-.021.33789-.03223l.169-.0166a2.45453,2.45453,0,0,1,1.8374.28467l1.01465.60205a.25183.25183,0,0,0,.03418.01758c.17187.29443.34619.58545.34619.58545l.50391-.30176c-.00049-.00049-.24414-.40772-.4375-.74317-.10254-.17724-.18994-.33251-.2168-.39648a.24857.24857,0,0,1,.01123-.28809.53216.53216,0,0,1,.24609.03077l.05713.062a4.99521,4.99521,0,0,0,.61914.59326c.06934.05566.125.09326.17139.12451.1001.06738.10645.07129.334,1.0625A1.67883,1.67883,0,0,1,62.75879,32.09375Zm2.09814-1.002a1.11373,1.11373,0,0,1-.42236.35986,5.35829,5.35829,0,0,1-1.08936.335,2.74784,2.74784,0,0,0-.06738-.40088c-.2583-1.12353-.27929-1.21533-.57861-1.4165-.03516-.02344-.07715-.05127-.13281-.09619a4.53525,4.53525,0,0,1-.54981-.52832,1.362,1.362,0,0,0-.11279-.11524,1.08639,1.08639,0,0,0-.58106-.17627.77338.77338,0,0,0-.10644.00733.5897.5897,0,0,0-.41065.23974.79971.79971,0,0,0-.16211.55616l-.31787-.18848a2.73748,2.73748,0,0,0-1.87744-.39649,3.50363,3.50363,0,0,1,.3877-1.72216,3.704,3.704,0,0,1,1.52881-.86866,1.042,1.042,0,0,1,.58935.04346c.53223.21631,3.21826,1.36817,3.84619,2.793A1.61061,1.61061,0,0,1,64.85693,31.0918Zm1.95166,7.06445c.07618-.11377,1.77246-2.73682.229-7.14746a.29753.29753,0,0,0-.00928-.07959l-.876-3.38477a.29044.29044,0,0,0-.35791-.21045.2937.2937,0,0,0-.21045.35791l.61573,2.37891a1.33475,1.33475,0,0,0-.58008.27393,3.17407,3.17407,0,0,0-.28174-1.064c-.70117-1.59131-3.36328-2.77539-4.16309-3.10107a1.75735,1.75735,0,0,0-.60839-.1084.29447.29447,0,0,0-.03467-.10986,2.8021,2.8021,0,0,1,.56738-3.11914c1.50684-1.78223,1.93506-1.95166,2.46143-2.01856l1.7583-.229a.29392.29392,0,0,0,.1333-.05274,3.60052,3.60052,0,0,1,3.49072-.36865,4.35651,4.35651,0,0,0-.40527.56055,11.11973,11.11973,0,0,0-.88965,2.39062c-.01465.09082-.11426.4043-.21094.70752a9.79292,9.79292,0,0,0-.53369,2.11231,31.64979,31.64979,0,0,0,.52979,4.06152c.04589.14746.14843.40137.26074.67676.13574.332.3623.88867.376.97949-.04785.21289-.189,1.061-.189,1.061a.29345.29345,0,0,0,.437.30225c.24951-.145.57373-.31445.61182-.33252.144.00928.8667.01953,1.00488-.50879a6.96385,6.96385,0,0,0,.12207-2.03125c-.02734-.20556-.06592-.38476-.10107-.54687A1.18485,1.18485,0,0,1,69.915,28.936a.83132.83132,0,0,1,.06738-.13575c.28565.77881,1.00147,2.36475,2.18115,2.66944a6.85687,6.85687,0,0,0,3.5459-.99463L75.5,32.57568l-.62158,2.17188a.2912.2912,0,0,0,.02978.23047c.6377,1.07226.86719,1.15332.938,1.17822a.41178.41178,0,0,0,.28858-.023c.08544-.04639.30859-.168.59082-1.416l.24658-.17676c-.05127.85742.15381,2.98047,2.95117,5.09277A7.32612,7.32612,0,0,0,77.7749,41.417a.293.293,0,0,0-.061.19336c-.25879.03272-.48535.06934-.60938.08936-.11767.0249-.3457.10449-.60156.19531a7.74819,7.74819,0,0,1-.96631.29,1.7388,1.7388,0,0,0-.84277.334,5.55718,5.55718,0,0,1-1.1084.51709,1.21171,1.21171,0,0,0-.78613.85987c-.12891.3291-.22217.56738-.67383.65625a1.42952,1.42952,0,0,0-.95752.71093,3.85693,3.85693,0,0,0-.33887.84815,1.89442,1.89442,0,0,1-.1875.48486.60036.60036,0,0,0-.31006.51758l-3.33447-1.59863a.92093.92093,0,0,1-.00342-.4419,1.42122,1.42122,0,0,0-.22363-1.1997.51782.51782,0,0,0,.09375-.27686c.02-.35059-.481-.76758-.72119-.94678a1.10431,1.10431,0,0,0-.10889-.63818,5.07937,5.07937,0,0,1-.2832-.981,3.233,3.233,0,0,0-.0669-.34424C66.07764,39.77686,66.72852,38.294,66.80859,38.15625Zm-6.06543-2.02979a1.87438,1.87438,0,0,1,1.145.57032.29946.29946,0,0,0,.1211.10888c.34863.16846.752.46094.79687.62745a.86839.86839,0,0,0,.51709.50927c.27637.14356.44336.23.3916.61621a.29508.29508,0,0,0,.13233.28614c.103.06689.3999.3081.41015.53271a.30082.30082,0,0,0,.19825.26465.98974.98974,0,0,1,.54931.71533l.02295.09863c.04151.17725.12744.53858.14209.65577a5.59086,5.59086,0,0,0,.34717,1.1792.56966.56966,0,0,1,.03857.33056.42621.42621,0,0,0,.17041.44922,3.83588,3.83588,0,0,1,.51123.44141.294.294,0,0,0-.1123.4834c.00439.00488.44824.46533.30908.89941a1.608,1.608,0,0,0,.002.81689c.06835.36768.10644.57032-.28467.8667a3.39389,3.39389,0,0,1-.91944.65381,1.8784,1.8784,0,0,1-.71191.11817c-.05859-.10938-.13965-.25977-.20654-.37745a1.002,1.002,0,0,0-.18262-.21435,1.8955,1.8955,0,0,1-.57471-1.64356,6.23367,6.23367,0,0,0,1.1958-.71c.38477-.32275.2168-1.03808-.00586-1.80517a1.04257,1.04257,0,0,0-.05859-.17627,11.94881,11.94881,0,0,0-.17334-1.30469c-.061-.40625-.11816-.77783-.12353-.86182-.00159-.025-.02442-.03942-.03229-.06219a1.03585,1.03585,0,0,0,.06549-.17462.29412.29412,0,0,0-.11524-.30664c-.02807-.01984-.39465-.27973-.84582-.56732a.2714.2714,0,0,0,.03137-.11823,1.9109,1.9109,0,0,0-.6084-1.04248,10.4483,10.4483,0,0,0-.88135-.647c-.07324-.04981-.13085-.08838-.15136-.103-.12647-.10352-.80274-.69922-.80323-.69922a.29169.29169,0,0,0-.126-.06543,5.46493,5.46493,0,0,0-1.02735-.148A3.04249,3.04249,0,0,1,60.74316,36.12646ZM62.70605,58.0708c.457.26318,1.228.81885,1.3501,1.1919a1.97663,1.97663,0,0,1,.0127,1.36132.87581.87581,0,0,1-.50147.43311c-.41211.0498-.99121.1123-1.30859.13525a.88186.88186,0,0,0-.54-.61133,1.30885,1.30885,0,0,0-1.14746.1753,13.58024,13.58024,0,0,1-1.59766.9414c-.06884.021-.1499.042-.23437.06348-.39551.10205-.76953.19824-.87354.46924A2.95519,2.95519,0,0,1,56.668,63.23389c-.06055.01513-1.14111.26074-2.17822.49609-1.04932.23828-1.53028.34766-1.7544.39893-.71045-1.23389-2.6001-3.89991-3.03906-4.51612l-.00635-.0083-.00537-.00732a2.18781,2.18781,0,0,0-.34863-.34033.25553.25553,0,0,0-.00684-.03858c-.16455-.69824-.22217-1.81787.17725-2.00244a.29349.29349,0,0,0,.07422-.04932l.11132-.10058c.15284-.13965.42969-.39453.60791-.59473l.10206-.11328c.46875-.52148.77539-.792.92382-.80469a2.17485,2.17485,0,0,0,1.18067-.75488l.07226-.083a2.1671,2.1671,0,0,1,1.89453-.95312c.458.07324,1.10108.13134,1.78174.19238a13.55889,13.55889,0,0,1,2.26026.30078,13.141,13.141,0,0,0,2.3584,1.45361l.0957.00391a3.28086,3.28086,0,0,1,.46387.041,1.19813,1.19813,0,0,1,1.04589.769.29309.29309,0,0,0,.10108.13965c.04785.03613.45508.36963.03027.9873a.29442.29442,0,0,0,.0957.4209Zm-3.21093,7.6626a.9768.9768,0,0,1-.252.29394.98337.98337,0,0,0-.28759.08838.29082.29082,0,0,0-.08936-.12207l-.39941-.32226a.29374.29374,0,1,0-.36914.457l.355.28662a.40674.40674,0,0,1-.09326.042.87176.87176,0,0,0-.4375.26123.90278.90278,0,0,1-.36915.23926,3.3588,3.3588,0,0,1-2.68652-.79639,7.31961,7.31961,0,0,1-.81885-1.31543.29364.29364,0,0,0-.52978.25342c.00574.0119.05658.11609.13452.26318a.26843.26843,0,0,0-.1145.03663l-.29694.25c-.07434-.313-.1568-.65149-.24115-.978.35742-.08154.98047-.22315,1.62012-.36817,2.21631-.50341,2.21631-.50341,2.25976-.52539,1.26368-.67627,1.46387-1.16357,1.49952-1.27832a2.20556,2.20556,0,0,1,.50683-.16894c.09375-.02442.18408-.04737.27051-.07422a13.20044,13.20044,0,0,0,1.75488-1.02051.721.721,0,0,1,.65772-.08642.64616.64616,0,0,1,.16553.34716,2.11129,2.11129,0,0,1-.85157,1.37012.29336.29336,0,0,0-.14111.24512s-.02979,1.48877-.06543,2.081c-.00342.05274-.02.06494-.03272.07422a1.05421,1.05421,0,0,1-.65087.02051l-.01368-.00293a1.86364,1.86364,0,0,1-.51806-.23877.294.294,0,0,0-.27051-.23535.302.302,0,0,0-.31055.27539C58.86182,65.37988,59.15723,65.58984,59.49512,65.7334Zm-.994-16.38922a9.41938,9.41938,0,0,0,.54773-1.96186,4.97774,4.97774,0,0,0-.1211-1.85791,6.07237,6.07237,0,0,0-.24853-.75927,16.58983,16.58983,0,0,0,4.28809.51806,2.40162,2.40162,0,0,0,.752,1.89405,1.02661,1.02661,0,0,1,.08252.08447l.00226.004C62.88757,49.92828,59.32672,49.48621,58.5011,49.34418Zm3.67706-11.163c.11182.08234.2265.16614.32233.248a1.28054,1.28054,0,0,1,.23419.28326,5.49964,5.49964,0,0,0-.51056-.254c-.11328-.04737-.14746-.08936-.15039-.09815C62.06757,38.3302,62.11517,38.25745,62.17816,38.18121Zm-1.46039-1.15484c.167.147.65918.57861.77539.67334.03565.02636.09961.06982.18213.12549l.02.01385a.80617.80617,0,0,0-.20361.60138.72349.72349,0,0,0,.50684.56006,12.50792,12.50792,0,0,1,1.77,1.05273,1.87321,1.87321,0,0,1-.77.63477.2937.2937,0,1,0,.26269.52539,2.91192,2.91192,0,0,0,.613-.404c.01831.12384.038.2558.05932.39715.01026.06885.02149.14307.03321.21973a.29151.29151,0,0,0-.13233.0498,4.86258,4.86258,0,0,1-1.36084.523.29346.29346,0,0,0,.126.57325,5.72822,5.72822,0,0,0,1.45654-.54053c.02588.17969.04395.31787.04541.35449a1.20078,1.20078,0,0,0,.08008.37793c.24707.84961.23731,1.12061.19482,1.18945a6.24477,6.24477,0,0,1-1.166.67676l-.1333.06592h-.002a14.73759,14.73759,0,0,1-4.66163-.62891,4.82631,4.82631,0,0,1-.248-1.51758,3.15575,3.15575,0,0,0-.63965-1.8125l-.11914-.14941a1.581,1.581,0,0,1-.48633-1.314,3.63609,3.63609,0,0,1,.97022-1.90967c.061-.021.13525-.0542.22363-.09375A3.74123,3.74123,0,0,1,60.71777,37.02637Zm-7.99414,8.3164a3.38093,3.38093,0,0,0,.56592-.8247,1.20541,1.20541,0,0,0,.09229-.41748c.01416-.14161.03906-.38916.10644-.88721a41.39294,41.39294,0,0,1,1.22461-4.29492,3.41763,3.41763,0,0,1,.98486-1.04248.29065.29065,0,0,0,.1001-.11573,1.67056,1.67056,0,0,1,1.83545-.99511.29067.29067,0,0,0,.18115-.01612c.05616-.02392.11084-.04394.16407-.06152-.0376.0166-.07276.03271-.10547.04736-.07032.03174-.12891.0586-.1836.07813a3.807,3.807,0,0,0-1.35058,2.3789,2.14033,2.14033,0,0,0,.61084,1.76514l.11133.13965a2.606,2.606,0,0,1,.51855,1.417,5.795,5.795,0,0,0,.521,2.38965,5.39873,5.39873,0,0,1,.25879.76856,4.39594,4.39594,0,0,1,.10742,1.63623c-.18262,1.063-.6001,2.30908-.95606,2.46826a7.64136,7.64136,0,0,1-3.87939-.48047c-.2041-.52735-.50244-.73486-1.22266-1.23584-.16894-.11719-.36377-.25293-.58984-.415a.43961.43961,0,0,1-.19873-.30957C51.54834,46.80078,52.25537,45.92334,52.72363,45.34277Zm-1.084,2.896c.16113.11426.30517.21387.43359.30322.70459.49024.876.61963,1.01123.96778a.92794.92794,0,0,0,.57032.4541,8.278,8.278,0,0,0,4.09619.34863,1.19428,1.19428,0,0,0,.44732-.42743,8.78853,8.78853,0,0,0,1.69916.16083,7.69863,7.69863,0,0,0,1.18842-.09247l.11334,5.18329c-.09229-.00635-.17822-.0083-.25781-.00977a17.77919,17.77919,0,0,1-2.07227-1.33984,7.409,7.409,0,0,0-2.56152-.41748c-.64063-.05762-1.30371-.11719-1.74073-.1875a2.74023,2.74023,0,0,0-2.43212,1.14892l-.06446.07374a1.66285,1.66285,0,0,1-.80615.56494c-.40332.0332-.84473.48974-1.29932.99609l-.10058.11133c-.16846.189-.42578.42529-.56738.5542l-.08106.07324c-.668.355-.64209,1.44189-.55371,2.11426-.20068-.11035-.41846-.21729-.64551-.32031C47.18359,51.74121,50.83545,48.79834,51.63965,48.23877Zm-7.08447,9.66992A17.6853,17.6853,0,0,1,48.87891,59.647a1.80828,1.80828,0,0,1,.34179.311c1.2038,1.689,2.88874,4.15265,3.15888,4.74743a16.66358,16.66358,0,0,0-4.87323-2.97058.29378.29378,0,0,0-.21485.54688c.04779.0188,4.71851,1.87726,5.50275,4.03729.089.38739.1485.65912.15057.66779a10.85418,10.85418,0,0,1,.26319,1.09082c-.03028.45605-.3628,4.29-3.021,5.02.84326-1.79834,1.26367-4.24073-1.38135-7.57715a.29366.29366,0,1,0-.46.36523c2.65039,3.34326,2.03955,5.61475,1.10352,7.377a6.67027,6.67027,0,0,1-4.50928,2.647l-.00342.00049a3.02412,3.02412,0,0,1-2.51367-.94287.29364.29364,0,0,0-.13818-.09668,11.97083,11.97083,0,0,0,.90771-2.3086c.60742-.11279,2.15332-.501,2.2168-1.54736.00488-.08057.01465-.16455.02393-.252.15307-1.37207-.14252-2.76264-5.07239-4.63978a5.47573,5.47573,0,0,1,3.4967-1.08776c.01172-.00049,1.20606-.05762,2.15137-.05762a.29346.29346,0,1,0,0-.58691c-.95947,0-2.16748.05712-2.16553.05761a5.5456,5.5456,0,0,0-4.22864,1.56092,8.981,8.981,0,0,0-2.77673,3.17736,19.0525,19.0525,0,0,0-1.17383,3.07227,46.6811,46.6811,0,0,1-5.45263-5.124c-.40967-.43213-.66016-.70606-.66114-.707a.29377.29377,0,0,0-.43359.39649s.15088.16455.40967.44043c-.37012.18945-1.03418.54248-1.6836.95312a7.38336,7.38336,0,0,1-.98144-.66259c-.271-.21338-.27783-.438-.26123-1.1836.00732-.33642.01611-.74707-.00977-1.25976-.06445-1.292,2.30664-1.9253,3.18213-2.01075.73926-.08447,3.57324-.78613,3.73877-.831l1.24042-.53119c.01788.00342.03253.01654.05108.01654a.29623.29623,0,0,0,.08887-.01416.28669.28669,0,0,0,.15039-.12677l1.15088-.49286c.02783.02686.05664.05322.08692.0791a4.8432,4.8432,0,0,1,.45312.44043,5.84434,5.84434,0,0,0,.481.46827,1.9619,1.9619,0,0,0,1.374.22363,2.56486,2.56486,0,0,0,.98926-.47266c.354-.18017.3706-.6084.38379-.95264l.00635-.13623a10.84507,10.84507,0,0,1,.20214-1.23535c.041-.15478.20948-.60791.29639-.834a1.88667,1.88667,0,0,1,.53857-.28516,1.84806,1.84806,0,0,0,.21875-.09814,1.94711,1.94711,0,0,0,.187-.1294c.05908-.04443.16894-.12744.17871-.13769a2.99387,2.99387,0,0,1,.55859.2539A3.46524,3.46524,0,0,0,44.041,58.2251,1.00619,1.00619,0,0,0,44.55518,57.90869Zm-4.127,24.14209.15088.03272a7.7189,7.7189,0,0,1,1.47754.83447l.05811.05469a8.44087,8.44087,0,0,1,.7583.75879,1.44265,1.44265,0,0,0,.43164.51757.29147.29147,0,0,0,.064.03809,7.3951,7.3951,0,0,1,.73584.46484c.13135.1626,1.28906,1.59229,1.41748,1.73633a.54256.54256,0,0,1,.09522.14551c-.01172.00439-.02442.0083-.03809.01221l-1.667-1.05664-1.25781-.48243a.29371.29371,0,0,0-.28614.50537,5.79793,5.79793,0,0,1,1.07715,1.50928s.41309.96924.60938,1.44824c.0874.22315.06933.231-.11865.3169a.83412.83412,0,0,1-.25879-.18067l-.73536-1.2373-1.34814-1.79492a.30974.30974,0,0,0-.54492.10156.29127.29127,0,0,0,.0083.13232v.00049l.00049.001.00244.00732.2832.84864.28565.71.354,1.21631s.24854.86377.33105,1.063a.38309.38309,0,0,1-.07666.08106,1.06144,1.06144,0,0,1-.17724-.05518l-1.32568-2.76074a.29412.29412,0,0,0-.56739.0957l-.0376.63916c-.04052.14795-.58642.43946-.77587.48633a1.33929,1.33929,0,0,0-.74317.40918.63394.63394,0,0,1,.01026-.269,2.13909,2.13909,0,0,1,.251-.17334,2.24178,2.24178,0,0,0,.396-.2915c.06787-.07276.27441-.29346-.13867-1.24707-.07569-.17823-.31592-.36622-.86036-.74707-.10449-.07325-.189-.13086-.22412-.16211-.10595-.09424-1.03564-.87842-1.03857-.88086-.5791-.47608-.95313-1.77784-1.14209-3.97852a.30748.30748,0,0,0-.02148-.26074c-.08057-1.02637-.11622-2.12256-.1504-3.18457l-.0166-.50195a14.94476,14.94476,0,0,1,.47119-4.229,18.13752,18.13752,0,0,1,1.2212-3.28467,8.50742,8.50742,0,0,1,2.49023-2.88183c5.23682,1.93994,5.08936,3.2622,4.9917,4.14013-.01074.09815-.02148.19239-.02637.28223-.03857.63623-1.44092.96924-1.9292,1.03565a.29373.29373,0,0,0-.25341.27343,10.82759,10.82759,0,0,1-1.05079,2.67041c-.20117.40723-.34668.687-.35107.69483l-.88037,1.792A32.86371,32.86371,0,0,0,39.05029,80.957C38.94385,81.74219,39.94629,81.95068,40.42822,82.05078ZM21.59082,58.81543a50.54848,50.54848,0,0,1-.57031-6.0459,7.35226,7.35226,0,0,1,1.74658-4.70312,50.62394,50.62394,0,0,0,8.84766-.40235,11.35922,11.35922,0,0,0,.98144,2.43262c-.00641.0188-.02582.02942-.02832.0498a18.32543,18.32543,0,0,0,.39258,5.40967c.5202,2.50244,1.21564,4.86164,1.4668,5.68512l-1.10254.47357c-.02881.00733-2.91748.72266-3.61377.80225-.80664.07861-3.8003.75342-3.70752,2.62451.02539.49561.0166.89209.00928,1.2168-.01661.75488-.02784,1.25342.48291,1.65625a8.0309,8.0309,0,0,0,.80322.56494,5.34054,5.34054,0,0,0-.95069.81445,7.56091,7.56091,0,0,0-1.48486,2.4126A9.905,9.905,0,0,0,22.665,70.56152c-.0752-.00488-.25928-.03271-.50049-.06884-.20557-.03028-.45019-.06641-.7041-.10059a.27781.27781,0,0,0-.021-.10156,8.49251,8.49251,0,0,1-.208-5.09424l.022-.10156a27.27416,27.27416,0,0,0,.6084-3.79883A24.1045,24.1045,0,0,0,21.59082,58.81543Zm14.24951,1.81885-.87.37372c-.26123-.86091-.93049-3.14631-1.43464-5.57148a19.57356,19.57356,0,0,1-.42547-4.49981l.05633.08477c.08789.13086.15674.23145.19434.30469.271.54541,1.73633,2.53955,1.95068,2.83057.4961,1.30224,1.01953,2.75342,1.04737,2.90918a2.67873,2.67873,0,0,1-.15186.32373,5.37472,5.37472,0,0,0-.59912,1.6499A2.58181,2.58181,0,0,0,35.84033,60.63428Zm12.30908-20.0874a2.04006,2.04006,0,0,1,.17627.38085,1.6285,1.6285,0,0,1-.894.23047l-.32275-.167a.29351.29351,0,1,0-.26953.52149l.31835.165c.51319.27442,1.437-.2163,1.583-.31543.26123-.17382.21-.50781.05957-.83984l.09619-.01172c.31641.04785,1.44727.2168,1.62256.227.08155.00489.55957.08643,1.0752.18018a1.48834,1.48834,0,0,1-.25342.12793l-1.416.23291a.29348.29348,0,0,0-.20263.44287l.43994.72021a.3951.3951,0,0,1,.05957.31592,1.151,1.151,0,0,1-.48682.564.294.294,0,0,0-.1372.31054c.22412,1.09913-.40235,1.43213-.46387,1.46582-1.14453.773-2.26856.12989-3.17139-.38623l-.08545-.04882a5.12827,5.12827,0,0,0-.65527-.335c-.54346-.21485-.55518-.6084-.52881-1.34327.00635-.16894.01221-.34179.00781-.51465a3.08373,3.08373,0,0,1,.52735-1.78027,3.9033,3.9033,0,0,1,1.17285-.606Zm-1.26123-.9419-.42675-.11279a.296.296,0,0,0-.17334.00732,4.25578,4.25578,0,0,0-1.53077.83887,3.66853,3.66853,0,0,0-.64355,2.147c.00391.16016-.002.3208-.00781.47852a1.81126,1.81126,0,0,0,.5415,1.71826c-.75976-.03027-1.58691-.06494-1.72461-.07715a4.11749,4.11749,0,0,1-3.457-2.63818,2.42984,2.42984,0,0,1-.00049-1.48047l1.49121-.751c.02686-.00928,2.71045-.94482,4.17578-1.59521l.05469-.02442a.28851.28851,0,0,0,.09424.11231A10.69906,10.69906,0,0,1,46.88818,39.605ZM45.688,35.54736a2.0799,2.0799,0,0,1-.4668.41993l-1.50146.99511a.29347.29347,0,1,0,.32422.48926l1.50048-.99414c.06836-.04492.13477-.09326.19873-.144a5.90424,5.90424,0,0,1-.06689.88672,4.29033,4.29033,0,0,1-.78174.40283c-1.44336.64111-4.10449,1.56836-4.1665,1.59277l-3.66944,1.84229a9.36583,9.36583,0,0,0,1.562-3.4253c.07226-.2417.13671-.457.19628-.63281a1.73654,1.73654,0,0,1,1.168-1.12744c.09864-.04443.19922-.08984.30176-.14063a5.30516,5.30516,0,0,0,1.561-1.50537.29152.29152,0,0,0,.2583.05567l4.21972-1.09473A3.55965,3.55965,0,0,1,45.688,35.54736Zm8.564-6.91015c-.03613.09863-.10888.28027-.20215.51318a22.31306,22.31306,0,0,0-1.05273,3.01611.66129.66129,0,0,1-.09424.26319.55675.55675,0,0,1-.25781-.16944.31209.31209,0,0,0-.46387.002,2.59478,2.59478,0,0,1-.40234.40088,1.51109,1.51109,0,0,1-.44873.08349l-.48779-.53222a.29341.29341,0,1,0-.43262.39648l.40918.44727c-.0586.06835-.106.11962-.1128.1289a1.07516,1.07516,0,0,0-.66113.78076c-.00976.15723-.01025.17041-.186.19873a4.04632,4.04632,0,0,1-1.3584-.51025l-1.96436-1.06787a.29595.29595,0,0,0-.21435-.02637l-4.08106,1.0586a7.41686,7.41686,0,0,0,.749-1.62549,5.22281,5.22281,0,0,0,.16552-2.49463,1.19764,1.19764,0,0,1,.15332.273c.16162.45263.69092.394,1.15723.34082a1.7203,1.7203,0,0,1,.748.00928,5.09614,5.09614,0,0,0,2.416-.06543,3.18421,3.18421,0,0,0,1.77588-.749,3.1152,3.1152,0,0,1,.2793-.19336,5.44247,5.44247,0,0,0,.48926-.35351,3.18539,3.18539,0,0,1,.59179-.4043,1.1861,1.1861,0,0,0,1.05811-.45264,1.63823,1.63823,0,0,0,.40088-.998l.78125.58593a4.40623,4.40623,0,0,0,1.25049.59864c.06933.02148.14013.04345.21875.0708A3.07324,3.07324,0,0,0,54.252,28.63721ZM40.92383,24.52734c.08887-.03173.45361-.10888.45508-.10937.1499-.03223.23437-.26709.21386-.41895-.02636-.41748,1.395-.94043,2.6875-1.148a.29373.29373,0,0,0,.24707-.27685.69667.69667,0,0,1,.28272-.54541c.83545-.66895,3.19433-.42871,4.03271-.28076a.29118.29118,0,0,0,.09864.001,6.39385,6.39385,0,0,1,4.11865,1.22657.29812.29812,0,0,0,.231.05322c1.44824-.273,2.26953,1.53271,2.27734,1.55127a.29373.29373,0,0,0,.18457.1626c1.03271.30859.94336,1.58789.687,2.60693l-.03027.14062c-.02832.16993-.05811.34571-.62842.43311a1.45231,1.45231,0,0,1-.75244-.17139,4.57079,4.57079,0,0,0-.59912-.22119,3.82888,3.82888,0,0,1-1.09033-.521l-1.22364-.91846a.29367.29367,0,0,0-.46875.26269,1.73711,1.73711,0,0,1-.22949,1.12745c-.32471.30664-.39209.30175-.6167.29-.26855-.02148-.5498.188-.98682.52686a4.894,4.894,0,0,1-.42578.31055,3.819,3.819,0,0,0-.331.22754,2.65769,2.65769,0,0,1-1.502.64111,4.99377,4.99377,0,0,1-2.0586.13135,1.17256,1.17256,0,0,0-.56494-.11817,4.83134,4.83134,0,0,0-.53125.04,4.05414,4.05414,0,0,1-.54.04248A2.58146,2.58146,0,0,0,42.834,28.41553c-.03759-.08838-.07714-.17578-.11962-.2627a5.46358,5.46358,0,0,0-1.57227-1.90722,6.00118,6.00118,0,0,0-.80225-.52295.3212.3212,0,0,0-.0166-.06885C40.12646,25.13477,40.78223,24.61328,40.92383,24.52734ZM37.04,25.481a.29276.29276,0,0,0,.1206-.03662,6.948,6.948,0,0,1,2.69874.68945,5.629,5.629,0,0,1,.92236.57519A4.889,4.889,0,0,1,42.187,28.41113a4.58425,4.58425,0,0,1,.24219,3.40772,7.03908,7.03908,0,0,1-.92871,1.86328,5.0954,5.0954,0,0,1-1.4751,1.50391c-.09473.04687-.18945.08935-.28271.13183a2.28389,2.28389,0,0,0-1.48243,1.47461c-.061.17969-.12744.40234-.20263.65186a8.13626,8.13626,0,0,1-1.56055,3.32617c-.12353.07861-.29639.28564-.17139.81054a3.86128,3.86128,0,0,0,.19141.54493c.05762.13427.13379.30224.22266.49658a12.91845,12.91845,0,0,1,1.41748,4.71289,17.47649,17.47649,0,0,0,.78369,5.27148c.20947.67676,1.21679,3.4209,1.95947,3.46485a2.17661,2.17661,0,0,1,1.12061.43506,5.61974,5.61974,0,0,0,1.59814.88964,1.63461,1.63461,0,0,1,.3916.209,1.18588,1.18588,0,0,1-.15527.0625,2.97579,2.97579,0,0,1-.93018.145,2.65707,2.65707,0,0,1-.5542-.04639,1.72844,1.72844,0,0,0-.80078-.30078,1.0273,1.0273,0,0,0-.51367.25439,1.41072,1.41072,0,0,1-.12939.0918c-.0293.01612-.08008.03516-.14112.05957a1.92755,1.92755,0,0,0-.81006.5l-.01123.01563a.56706.56706,0,0,0-.06836.11181.29636.29636,0,0,0-.02685.11963c-.084.22217-.22412.60156-.26807.76856a11.09341,11.09341,0,0,0-.22021,1.34814l-.00684.14942c-.00537.13086-.01562.40234-.104.477a2.1458,2.1458,0,0,1-.794.39062,1.51644,1.51644,0,0,1-.89209-.09912,5.19775,5.19775,0,0,1-.42627-.41748,5.41046,5.41046,0,0,0-.50439-.48779A1.02442,1.02442,0,0,1,36.5,60.5835a1.885,1.885,0,0,1-.311-1.45655,4.84883,4.84883,0,0,1,.54053-1.46924,1.556,1.556,0,0,0,.21387-.54248,15.43118,15.43118,0,0,0-1.09717-3.20507.30184.30184,0,0,0-.03808-.06983c-.46045-.623-1.70264-2.335-1.92286-2.77881a4.26543,4.26543,0,0,0-.23095-.36718,10.4501,10.4501,0,0,1-1.542-3.43848,18.70381,18.70381,0,0,1-.5039-3.0083,5.66065,5.66065,0,0,1-.166-1.83936c.01221-.26367.0376-.55664.07862-.87207a33.73681,33.73681,0,0,0,.18652-4.06933c0-.30078,0-.52344.00586-.63135.00635-.10547.02685-.31641.0625-.59815a17.5456,17.5456,0,0,1,.75146-3.45556,50.20625,50.20625,0,0,1,2.56836-4.80127.29367.29367,0,0,0-.5039-.30176,49.397,49.397,0,0,0-2.61328,4.89453,16.7883,16.7883,0,0,0-.74952,3.31494.26485.26485,0,0,0-.05371.01416c-1.33935.4917-2.82177-1.085-4.09765-2.69384C25.856,31.666,26.606,30.35791,28.74951,28.0083,30.54932,26.03564,36.38135,25.53174,37.04,25.481ZM20.81982,32.8999c.05664-.33105.11622-.63476.18164-.89062A3.20715,3.20715,0,0,1,22.895,30.01709c.126-.06934.24805-.13623.36377-.2041a5.84513,5.84513,0,0,0,1.37842-1.47119A6.29239,6.29239,0,0,1,25.959,26.90332a19.57544,19.57544,0,0,1,4.40235-1.26367l.82763-.18213a11.5526,11.5526,0,0,1,2.334-.18848c.18213,0,.36377.002.543.00586-2.063.37158-4.59278,1.06885-5.75,2.33789-1.94727,2.13379-3.3086,3.92774-1.69824,5.96045,1.34277,1.69385,2.91845,3.352,4.53369,2.94971-.0127.12256-.02051.21728-.02393.27881-.00683.11328-.00732.34765-.00732.66455a33.32025,33.32025,0,0,1-.18116,3.99316c-.03076.2334-.05273.45459-.06787.6626a.28845.28845,0,0,0-.0498.0293l-.16309.11816c-.01025-.00488-.021-.00879-.03174-.01269l-2.666-.88477c-.13818-.03711-.561-.19629-1.0083-.36475a15.07553,15.07553,0,0,0-2.58545-.84668,7.34644,7.34644,0,0,1-2.31934-.9038,6.76878,6.76878,0,0,1-1.6914-2.46875C20.38184,36.38037,20.56348,34.37256,20.81982,32.8999ZM15.04541,41.876c-.13086-.148-.23584-.26514-.314-.33643a2.73978,2.73978,0,0,1-.42969-1.53809.86075.86075,0,0,1,.12988-.56689c.48682-.43262,1.811-2.0166,1.89844-2.12988,1.582-2.86133,3.20459-3.81055,3.84277-4.08936-.22412,1.43408-.3789,3.15869-.40283,3.5376a6.4761,6.4761,0,0,0,1.9541,2.99414,7.71179,7.71179,0,0,0,2.60791.99951,18.942,18.942,0,0,1,2.41309.81006c.501.189.89648.33789,1.0459.37793l2.27978.75684c-.67822.48339-1.71435,1.20947-2.813,1.93554-1.44043.95508-2.72851-.07373-3.667-.82373-.15674-.125-.30127-.24023-.43506-.33789a2.279,2.279,0,0,0-1.35156-.34961,12.76085,12.76085,0,0,0-2.27979.31055c-.45752.08887-.92236.1792-1.37451.24268a2.95722,2.95722,0,0,1-2.4082-1.05811C15.46045,42.34473,15.22559,42.07959,15.04541,41.876Zm.52051,1.3706a3.33028,3.33028,0,0,0,2.665,1.0044c.4624-.06543.938-.15723,1.40576-.248,1.26172-.24463,2.56641-.498,3.1748-.06152.126.09179.26368.20214.4126.3208.95752.76513,2.56006,2.0459,4.35791.855,1.3418-.88721,2.59033-1.77393,3.21533-2.22315l.05078-.03711a5.12948,5.12948,0,0,0,.18946,1.51172l.00049-.001a18.47278,18.47278,0,0,0,.42773,2.72412,49.79786,49.79786,0,0,1-8.87207.377,28.11628,28.11628,0,0,1-3.63525-.43115,17.94169,17.94169,0,0,1-1.92188-.46973c-.29248-.08642-.57617-.1831-.85449-.28906C15.06787,44.54248,15.3208,43.6333,15.56592,43.24658ZM10.86523,67.4248a.31736.31736,0,0,0-.03662-.03027L8.915,66.07422a.798.798,0,0,1-.14746-1.18848A23.71709,23.71709,0,0,0,12.75,59.41016a40.31774,40.31774,0,0,0,.91309-7.05957c.51074-4.17823,1.97314-5.29395,2.34033-5.51172q.23291.08789.46924.167A9.55645,9.55645,0,0,0,14.249,53.001l-.67285,8.55322c-.00293.0415-.00928.03857.00537.07764a5.13416,5.13416,0,0,1-.48388,1.66748c0,.00048-.69776,1.54541-1.11182,2.44824a8.64967,8.64967,0,0,1-.37695.78613A5.63119,5.63119,0,0,1,10.86523,67.4248Zm2.897,1.28223a12.677,12.677,0,0,1-2.4834-.75635c-.0044-.01611-.02735-.062-.03418-.07714a6.02517,6.02517,0,0,0,.874-1.04883,9.01989,9.01989,0,0,0,.40137-.83252c.41406-.9043,1.11279-2.45069,1.11914-2.46582a6.17286,6.17286,0,0,0,.52539-1.96l.6709-8.53516a8.984,8.984,0,0,1,2.25928-5.833c.39062.11377.79882.2168,1.23291.31055a8.24861,8.24861,0,0,0-2.41114,6.30615c.00782.78858.03614,1.63281.06543,2.50391.12549,3.73828.26807,7.97558-1.10742,10.44238a7.30547,7.30547,0,0,1-.38965.62305A3.19962,3.19962,0,0,0,13.76221,68.707Zm3.92138,1.48486a2.71846,2.71846,0,0,1-.6372-.5708A2.498,2.498,0,0,0,15.02,68.9502c-.15869-.00684-.32764-.01368-.50977-.02442a.29962.29962,0,0,1-.16748-.0415c-.06933-.10938.18946-.648.60547-1.14063a7.47608,7.47608,0,0,0,.43946-.69726c1.45459-2.6084,1.30957-6.93262,1.18115-10.74707-.02881-.8667-.05713-1.70606-.06543-2.49024-.04-4.29,2.52148-6.12109,2.54736-6.13867l.019-.01465a28.27564,28.27564,0,0,0,2.9712.36524,7.90588,7.90588,0,0,0-1.60743,4.74853,50.8128,50.8128,0,0,0,.5752,6.12451c.146,1.08155.272,2.01563.26611,2.39209a26.46685,26.46685,0,0,1-.5957,3.68457l-.022.10108a9.12155,9.12155,0,0,0,.16113,5.23926,7.73214,7.73214,0,0,0-.78711-.05323.27645.27645,0,0,0-.106-.00342l-.04785.00684c-.04687.00244-.08984.00635-.1289.01123-.02833.00342-.05909.0083-.0918.01514A7.26,7.26,0,0,1,17.68359,70.19189Zm2.89991,5.90723a1.27252,1.27252,0,0,1-.15723.16651,11.23174,11.23174,0,0,1-1.63184,1.09814H18.792a1.81679,1.81679,0,0,1-1.45361-.522c-.646-.74219-.417-2.1875-.26563-3.14405.03467-.21875.06543-.41455.083-.57617.10889-1.01953,1.916-2.10107,2.582-2.25195.06446-.00635.12891-.01416.19434-.02295a9.52652,9.52652,0,0,1,1.439.126c.25586.03418.50147.0708.707.10107.26562.03955.46826.06885.53222.07178a16.61748,16.61748,0,0,1,2.1167,1.27637c-.00439.04052-.0083.08105-.01123.12158a2.40746,2.40746,0,0,0,.6665,1.6665c-.38525-.0166-.75048-.02-1.0288-.02295-.18506-.002-.32666-.00293-.40284-.00781A9.0291,9.0291,0,0,0,20.5835,76.09912Zm.6958.39209a.29617.29617,0,0,0-.08838-.18066,10.46,10.46,0,0,1,2.72363-1.54541c.07861.00537.23193.00732.43311.00927.44336.0044,1.11377.01075,1.71386.06934.95362.09033,1.09375.25439,1.09912.26123a5.32613,5.32613,0,0,1,.4878,1.353c.1748.63525.26611.94629.43359,1.08887.23145.19287,2.06348,1.687,2.06348,1.687l.37109-.45508S28.68848,77.2876,28.478,77.11572a4.956,4.956,0,0,1-.26319-.81347,5.149,5.149,0,0,0-.59033-1.55762c-.18359-.23682-.5957-.38281-1.32422-.46631a.24578.24578,0,0,0-.02392-.021c-.10547-.08154-1.02539-.82177-.97461-1.67334a2.33656,2.33656,0,0,1,.04345-.31054A6.18533,6.18533,0,0,1,26.793,69.77783a5.80281,5.80281,0,0,1,1.187-.95019,21.58111,21.58111,0,0,1,1.96729-1.11719,42.02142,42.02142,0,0,0,5.54687,5.13476l.01465.00831a15.51763,15.51763,0,0,0-.42041,4.11865l.0166.50146c.03467,1.0791.0708,2.19336.1543,3.2417-1.4624,1.25879-4,1.084-6.457.91455-.32325-.022-.646-.04443-.96729-.06347a9.30738,9.30738,0,0,1-5.55029-2.36621c-.08057-.082-.15088-.15577-.207-.22608A6.07233,6.07233,0,0,1,21.2793,76.49121Zm27.73486,14.208c.06738-.13574.12842-.27539.18262-.41748a18.2219,18.2219,0,0,1,1.03711,1.55908c.49365.83984.29687,2.53223.1914,3.44141-.01855.15966-.03466.29834-.04443.40869-.03272.38623-.19043.53711-.61182.93945-.24365.2334-.54687.52295-.92773.95947-1.01514,1.167-3.5835.56592-4.34522.354A43.87385,43.87385,0,0,0,39.16943,96.895a16.1756,16.1756,0,0,1-4.28808-1.82813c-.396-.21289-.71192-.38232-.894-.46386a47.95565,47.95565,0,0,1-4.54443-3.58594,4.33029,4.33029,0,0,0-1.93555-.748.42766.42766,0,0,0-.08447-.00879c-.22217,0-.793.187-3.22119,1.877l-.06592.04541a2.02584,2.02584,0,0,0-.76172.84424.96008.96008,0,0,0,.08741.82275l.05517.12256a.845.845,0,0,0,.65918.47412,1.3503,1.3503,0,0,1,.147.042c.16211.05811.43995.15283.67041.23a2.82827,2.82827,0,0,1-.3789.48194c-.29.11816-.29444.44482-.29737.64013l-.001.03858A1.11765,1.11765,0,0,1,24.021,95.98a2.033,2.033,0,0,1-.30713-.01367,1.46136,1.46136,0,0,0-.30713-.01026l-.01611.00049c-.12159,0-.5254-.0581-.54688-.05175a3.97,3.97,0,0,1-.29248-.28418c-.01074-.083-.0376-.13819-.35938-.73926a15.41448,15.41448,0,0,1-1.04443-2.18311,16.15172,16.15172,0,0,1,1.35889-3.83349,7.32274,7.32274,0,0,0,.54248-2.69971l.01074-.20361a1.36017,1.36017,0,0,1,.36914-.76807c.58008.49853,1.1416,1.01416,1.7002,1.52685a22.623,22.623,0,0,0,5.41064,4.04932c2.76025,1.32324,8.8042,3.72022,9.47461,3.95215.1333.04395.37988.13721.69092.26465a22.67651,22.67651,0,0,1,3.64013,1.72949.2935.2935,0,1,0,.41016-.41992,11.7364,11.7364,0,0,0-2.26416-1.189c4.5542.07276,5.37988-1.81738,6.17774-3.64453C48.77979,91.20752,48.89209,90.95068,49.01416,90.69922Zm-.791-3.82959a2.5251,2.5251,0,0,0,.15674.31592,3.14975,3.14975,0,0,1,.44825,2.2666c-.01758.08935-.03956.18017-.065.272a4.17334,4.17334,0,0,1-.27636.71631c-.12647.26074-.2417.5249-.35645.78711-.80713,1.85107-1.51318,3.45019-5.9751,3.28369l-1.30078-.11963-.02734-.001-.02539.001c-.26856-.10791-.48145-.1875-.59961-.22607-.66113-.229-6.66455-2.60987-9.40967-3.92578a21.876,21.876,0,0,1-5.2666-3.95215c-.58643-.53858-1.17578-1.07959-1.78613-1.60108l-.13428-.12011A5.45476,5.45476,0,0,1,22.23,79.94287a9.93913,9.93913,0,0,0,5.56982,2.20947c.31934.01954.64063.04151.96241.06348,2.41259.166,4.90429.33838,6.55957-.80713.2207,2.145.63086,3.36475,1.3081,3.92188,0,0,.919.77441,1.01905.86377.03613.03369.14453.11181.28271.20849a6.31655,6.31655,0,0,1,.65772.49805,2.87013,2.87013,0,0,1,.20214.65283c-.064.04736-.16894.11572-.23925.16065-.249.16162-.36182.23779-.41407.33642a1.097,1.097,0,0,0-.09716.74658.61035.61035,0,0,0,.28173.38282.51368.51368,0,0,0,.73145-.14258.728.728,0,0,1,.42236-.22266,2.49639,2.49639,0,0,0,1.12744-.71045l.97364,2.02735a.29493.29493,0,0,0,.13476.13671c.27.13282.64014.25049.88574.03223a.6484.6484,0,0,0,.2627-.73486c-.0752-.20508-.313-1.03565-.314-1.0376l-.29151-.998.94776,1.51807c.11669.13525.52978.55615.92041.38721a.7486.7486,0,0,0,.47607-1.084c-.19922-.48633-.61426-1.46045-.62256-1.47851a9.42646,9.42646,0,0,0-.48242-.82032l1.86963,1.15235a.28482.28482,0,0,0,.19238.04394.89628.89628,0,0,0,.57178-.27588.723.723,0,0,0-.16944-.87793c-.08935-.0996-.88476-1.07861-1.44921-1.7622a6.87888,6.87888,0,0,0-.86622-.56543,1.04082,1.04082,0,0,1-.21826-.23535c-.04785-.13184-.20654-.32862-.90869-.9878l-.05615-.05273a7.41653,7.41653,0,0,0-1.74707-.98l-.16553-.03613c-.25928-.05371-.94824-.19678-.916-.437a31.25577,31.25577,0,0,1,1.26074-3.34863l.87012-1.77s.106-.20263.26171-.51562a3.67368,3.67368,0,0,0,2.71827,1.09716,19.51449,19.51449,0,0,1,1.35546,3.39112c.08155.582.791,2.86572,1.37159,4.6792C47.84277,85.73535,48.16211,86.69775,48.22314,86.86963ZM47.201,81.73706c-.30255-1.00671-.487-1.684-.52081-1.926a18.4179,18.4179,0,0,0-1.31885-3.37842A7.3664,7.3664,0,0,0,49.813,73.76953l.01221-.00146a3.74741,3.74741,0,0,0,2.40008-1.2992,16.976,16.976,0,0,1-.89667,3.28894c-.00439.01221-.45654,1.22754-.98925,2.3291C50.07245,79.0141,48.18219,80.85437,47.201,81.73706Zm2.16046-1.28918a6.81283,6.81283,0,0,0,1.5238-2.15052c.18421-.37738.35712-.76733.50684-1.12011.03809,1.77441.20337,4.39349.28271,5.5791C50.84143,81.9718,50.02527,81.15076,49.36145,80.44788Zm14.4364,1.766c-.00195.13086-.00928.26855-.0166.41064a6.19686,6.19686,0,0,0,.019,1.20069,3.68365,3.68365,0,0,0-2.9248.62109,9.92059,9.92059,0,0,1-1.46143.66455,14.92111,14.92111,0,0,1-3.28906.63086,37.79861,37.79861,0,0,0,2.15479-8.07861c.002-.019.19677-1.91846.37255-4.49707a.29357.29357,0,0,0-.273-.313.29762.29762,0,0,0-.313.27295c-.17481,2.56787-.36866,4.458-.37061,4.47509a38.398,38.398,0,0,1-2.187,8.10743,12.88166,12.88166,0,0,1-3.21191-2.376.26054.26054,0,0,0,.002-.05859c-.13135-1.86622-.43848-6.877-.28906-7.64112.00219-.01117-.00715-.01983-.00623-.03088a18.6523,18.6523,0,0,0,.85388-3.327c.07227-.41552.13477-.77392.22461-1.11572.00452-.01727-.00806-.0318-.00671-.049a9.30079,9.30079,0,0,0,.71863-2.99054,6.83272,6.83272,0,0,0-.2793-1.27442s-.04926-.22491-.12451-.55468l.52539-.44239.00586-.01129a5.48662,5.48662,0,0,0,.499.70661,3.84342,3.84342,0,0,0,3.30176.97656,1.45514,1.45514,0,0,0,.59863-.37109.58938.58938,0,0,1,.148-.11524,1.41049,1.41049,0,0,0,.47363-.23144,1.19213,1.19213,0,0,1,.38037-.19287c.32471-.0459.59961-.42725.76172-.71045a1.31305,1.31305,0,0,0,.90869-.16016.664.664,0,0,0,.26905-.51123c.02978-.48486.05468-1.56445.06347-1.95752A2.75427,2.75427,0,0,0,62.273,61.7793c.43408-.02881,1.19678-.12012,1.41943-.15088a1.46615,1.46615,0,0,0,.90039-.73877,2.50486,2.50486,0,0,0,.021-1.81055c-.17725-.542-.9502-1.09765-1.36377-1.36377a1.21626,1.21626,0,0,0-.24463-1.46142,1.71464,1.71464,0,0,0-1.2168-1.02149l-.11816-5.40137-.00134-.003a3.678,3.678,0,0,0,2.50769-1.95312.29058.29058,0,0,0,.1167.047,2.47434,2.47434,0,0,0,1.15722-.144,3.86371,3.86371,0,0,0,1.08448-.75683,1.17548,1.17548,0,0,0,.52343-.8252l3.35108,1.60693.001.0044a1.79653,1.79653,0,0,1,.06348.65088,1.13563,1.13563,0,0,0,.46484,1.18164.29016.29016,0,0,0,.11719.05078,10.42918,10.42918,0,0,0,.12061,1.71436,4.95245,4.95245,0,0,0,.75683,1.95361.33383.33383,0,0,0-.0249.05517,2.6848,2.6848,0,0,1-.499.96143c-.34863.24561-1.96924,2.292-1.64649,3.75488.28321,1.27637.93409,3.48047.94043,3.50293a.28585.28585,0,0,0,.31592.208l.23731-.02783a5.26177,5.26177,0,0,1-.6211,1.35986l-.06738.05615a6.33684,6.33684,0,0,0-1.9375,3.06885,2.0242,2.0242,0,0,0-2.29492.522c-.67481.61963-.92383.84375-1.01074.92041a.25844.25844,0,0,0-.0459.03565l-.0166.01465a.2951.2951,0,0,0-.03614.03808,4.145,4.145,0,0,1-.11279-3.19482,5.89869,5.89869,0,0,1,2.94678-2.78858.29378.29378,0,0,0-.21973-.54492,7.1271,7.1271,0,0,0-1.95068,1.2666c-.0484-.684-.12476-1.88256-.14026-2.8103.80432-2.47626,2.39355-6.50622,3.26184-6.85376a.29341.29341,0,0,0-.21777-.54492c-.88056.35211-1.95673,2.74078-2.71625,4.71777.23138-1.1632.58148-2.81048,1.04486-4.90673a.29357.29357,0,0,0-.57324-.127c-.605,2.73731-1.335,6.14453-1.37549,6.83545-.07129,1.17334.14844,3.99121.16992,4.26123a4.83466,4.83466,0,0,0-.77246,1.27,4.782,4.782,0,0,0,.19336,3.83447.2939.2939,0,0,0,.0791.10645,3.07246,3.07246,0,0,0-.56885.91113,16.5573,16.5573,0,0,0-.50683,2.3042,3.616,3.616,0,0,1-.0586.60938,5.71343,5.71343,0,0,1-.61816.38672c-.67481-.94483-.94824-.99952-1.04053-1.01807-.26758-.0542-.64892-.09912-.84424.144a.46277.46277,0,0,0-.07275.43164l-.04346.01807c-.16748.06836-.42041.17187-.46484.44385-.04639.28711.1958.53759.41162.72314l.88525.76807a4.49265,4.49265,0,0,0,1.4336.86377,2.12976,2.12976,0,0,0,1.49853-.19922,1.11974,1.11974,0,0,1-.09424.28613c-.09179.14844-.63623,1.397-.44091,1.86182.05078.15039.26318.69726.69531.76465.1792.02832.44873-.01758.72021-.397l.11621-.16162c-.28759.897-.50586,1.5127-.64306,1.813-.18848.41162-.398.79541-.59522,1.15674A5.00009,5.00009,0,0,0,63.79785,82.21387Zm1.30908-5.145a.86782.86782,0,0,1-.24707-.40332,3.893,3.893,0,0,1,.39453-1.32569,3.47163,3.47163,0,0,0,.32276-1.23925c.063-.376.11328-.74561.13867-.94483a.972.972,0,0,0,.90039-.938,1.994,1.994,0,0,1,.28223-.88916,2.01735,2.01735,0,0,0,.15381-.33642.29424.29424,0,0,0-.19434-.36719.29069.29069,0,0,0-.36719.19434,1.41965,1.41965,0,0,1-.11035.23291,2.55416,2.55416,0,0,0-.3501,1.12988.38963.38963,0,0,1-.3916.39551c-.064-.00928-.19678-.02979-.23535-.36084a3.22851,3.22851,0,0,1,.05029-.8042l.02344-.165a.29376.29376,0,1,0-.584-.06445l-.02.14111a3.71138,3.71138,0,0,0-.05323.96094,1.00047,1.00047,0,0,0,.32715.6914c-.01416.11133-.05566.43653-.11279.80371a.29493.29493,0,0,0-.11865.10889,1.34738,1.34738,0,0,1-1.43164.47314,3.91232,3.91232,0,0,1-1.17774-.73535l-.88525-.76757a1.67758,1.67758,0,0,1-.16211-.15674l.0542-.02246a.66129.66129,0,0,0,.416-.332.42.42,0,0,0,.01368-.25976,1.42654,1.42654,0,0,1,.17578.02588,3.82108,3.82108,0,0,1,.80664.94775c.09961.13526.26709.36084,1.33349-.41553.31543-.2373.29688-1.08837.29639-1.09521a18.34912,18.34912,0,0,1,.48389-2.12012c.07031-.18164.07031-.18164.53711-.81347l.2959-.40137c.0708-.06006.28369-.25,1.06152-.96387.81982-.7539,1.45264-.53564,1.70459-.39209a26.0631,26.0631,0,0,0-.98145,4.82031s-.47021,1.67676-.998,3.44239a.28256.28256,0,0,0-.05616.06591l-.582.93946-.5625.78076A.60453.60453,0,0,1,65.10693,77.06885Zm.00147,7.981a.29221.29221,0,0,0-.11475-.21582,1.4918,1.4918,0,0,1-.40527-.456c-.01318-.02344-.02588-.04736-.03809-.07129a.2931.2931,0,0,0-.05908-.13672,3.81372,3.81372,0,0,1-.123-1.51562c.00733-.14942.01465-.294.01661-.43262a4.68382,4.68382,0,0,1,.74365-1.88037c.20312-.37256.41894-.769.61377-1.19385.23047-.50439.64551-1.75146,1.23388-3.70654.54786-1.82422,1.0459-3.60205,1.05469-3.646a25.22025,25.22025,0,0,1,1.0376-4.97021,6.1323,6.1323,0,0,1,1.8706-3.14014l.08887-.07422a6.13062,6.13062,0,0,0,.87305-1.87012l.00146-.0039,5.50537-.66358c.01465-.00341.312-.07617.71-.2163l-1.6919,3.61376a.29436.29436,0,0,0-.02637.15137,9.60356,9.60356,0,0,1-1.23437,4.709q-.28491.59546-.6167,1.19287a58.632,58.632,0,0,1-4.24707,6.40088,9.504,9.504,0,0,0-1.03564,1.51709c-.25831.82129-.3125,1.43261.25488,3.8374a3.46391,3.46391,0,0,1-.30469,2.458l-.0376-.39795a.29386.29386,0,0,0-.31543-.26514,2.50568,2.50568,0,0,0-1.78711,1.04639A13.52832,13.52832,0,0,0,65.84863,88.543a4.21012,4.21012,0,0,1-.3623.96582l-.01367-.0127a.8967.8967,0,0,1-.1294-.56152Zm-.8252,16.18067-8.36767-2.82324.00146-1.73584,8.36963,2.75049Zm.30371-2.32813-7.876-2.58789,7.99511-1.86963-.48242,2.55079a.29365.29365,0,0,0,.56348.15771l1.11719-2.99023,3.458-.80713.88428,2.40381a.29362.29362,0,0,0,.56592-.145l-.37744-2.50928,1.34424-.314,8.30078,1.70557ZM81.022,96.57861l-16.15185,4.749.0039-1.89649L81.022,94.83984Z"/>
        <path d="M59.00439,63.937a.29458.29458,0,0,0,.41407.03418l.24707-.20947a4.43823,4.43823,0,0,0,.42968.13867.29349.29349,0,0,0,.1504-.56738,2.30083,2.30083,0,0,1-1.06592-.54.2938.2938,0,0,0-.50879.29394,1.231,1.231,0,0,0,.4165.395l-.04883.041A.29392.29392,0,0,0,59.00439,63.937Z"/>
        <path d="M73.35889,28.91211a1.41115,1.41115,0,0,1-.31592-.0459.29344.29344,0,0,0-.53809.06494.40981.40981,0,0,0,.05713.29639c.11475.16211.34961.2456.76074.27051l.01856.00049a.29349.29349,0,0,0,.01758-.58643Z"/>
        <path d="M51.57715,28.90967a.2936.2936,0,1,0-.32617.48828l.47216.31543-.14453.21387a.29374.29374,0,0,0,.48731.32812l.14551-.21631.53027.354a.2936.2936,0,1,0,.32617-.48828Z"/>
        <path d="M71.95215,26.86426a.29328.29328,0,0,0,.25244.32959.26269.26269,0,0,0,.03906.00244.293.293,0,0,0,.29053-.25488l.01758-.13233a3.27447,3.27447,0,0,0,.70752.09424h.00488a.29348.29348,0,0,0,.00488-.58691,3.83758,3.83758,0,0,1-1.63086-.49659.29359.29359,0,0,0-.30224.50342,4.4721,4.4721,0,0,0,.64746.30713Z"/>
        <path d="M76.63232,54.80225l.832-.17383.23144.25586a.29351.29351,0,0,0,.43555-.39356l-.00049-.001.94043-.1958a.2938.2938,0,0,0-.12012-.5752l-2.439.5083a.2938.2938,0,0,0,.12011.5752Z"/>
        <path d="M98.52246,43.57324A.29078.29078,0,0,0,98.73,43.4873l2.35107-2.35107a.29347.29347,0,1,0-.415-.415l-2.35108,2.35108a.29346.29346,0,0,0,.20752.501Z"/>
        <path d="M326.39227,85.8692v-.09186a5.619,5.619,0,0,0,3.15015-4.801c0-3.4256-2.84473-5.5954-6.39209-5.5954A8.30089,8.30089,0,0,0,317.493,78.0719a.546.546,0,0,0,0,.79449l1.1319,1.008a.51972.51972,0,0,0,.79443-.05981,4.66485,4.66485,0,0,1,3.5473-1.71277,3.35425,3.35425,0,0,1,3.48755,3.33374c0,1.80255-1.43731,3.27185-4.31189,3.27185h-1.71276c-.42933,0-.61084.18365-.61084.64068v1.31556a.564.564,0,0,0,.58093.64288h1.71063c3.27185,0,4.833,1.74267,4.833,3.57721,0,2.04809-1.8346,3.30169-3.82288,3.30169a6.10556,6.10556,0,0,1-4.15808-1.89428.53641.53641,0,0,0-.82648-.06195l-1.19171,1.102a.52261.52261,0,0,0-.032.73254,7.71366,7.71366,0,0,0,6.27032,2.723c4.22,0,6.911-2.5094,6.911-5.84106C330.09338,88.31451,327.82959,86.48,326.39227,85.8692Z"/>
        <path d="M189.97736,93.63654H181.691V75.65436a.60186.60186,0,0,0-.58087-.58093h-2.01819a.58005.58005,0,0,0-.58093.58093V95.89819a.58.58,0,0,0,.58093.58094h10.88544a.58145.58145,0,0,0,.58093-.58094V94.21747A.58148.58148,0,0,0,189.97736,93.63654Z"/>
        <path d="M161.14172,75.22723a.61725.61725,0,0,0-.551-.45916h-.489a.58108.58108,0,0,0-.519.33746l-6.35992,15.62439h-.1239L146.709,75.10553a.62426.62426,0,0,0-.52105-.33746h-.48908a.6194.6194,0,0,0-.551.45916l-3.79077,20.54926a.54846.54846,0,0,0,.58087.70264h1.98828a.5935.5935,0,0,0,.54889-.42713l2.2019-13.66821h.12378l5.53351,14.06543a.55161.55161,0,0,0,.52106.33746h.549a.52255.52255,0,0,0,.52105-.33746l5.50354-14.06543h.09186l2.2638,13.66821a.63306.63306,0,0,0,.58087.42713h1.9862a.52084.52084,0,0,0,.551-.70264Z"/>
        <path d="M248.65869,74.76807a11.00931,11.00931,0,1,0,11.00714,11.03918A10.96466,10.96466,0,0,0,248.65869,74.76807Zm0,18.96032a7.95105,7.95105,0,1,1,7.949-7.92114A7.94149,7.94149,0,0,1,248.65869,93.72839Z"/>
        <rect x="169.39813" y="75.07343" width="3.18005" height="21.4057" rx="0.58093"/>
        <path d="M203.15643,75.10553a.71707.71707,0,0,0-.51892-.33746H202.33a.71719.71719,0,0,0-.519.33746l-9.3883,20.5791a.53994.53994,0,0,0,.52112.7945h1.92633a.76674.76674,0,0,0,.70263-.457c.61084-1.4074,1.25367-2.78277,1.86438-4.19012h10.00135l1.89428,4.19012a.71665.71665,0,0,0,.70484.457h1.92627a.53957.53957,0,0,0,.519-.7945ZM198.631,89.20294l3.731-8.38031h.15161l3.76087,8.38031Z"/>
        <path d="M279.24127,94.03381h-3.36365V76.26727a.57579.57579,0,0,0-.551-.58087h-1.49927l-4.5553,4.12818a.58752.58752,0,0,0-.09185.61084l.36731,1.06994a.46365.46365,0,0,0,.67273.2157l2.65887-1.34546V94.03381H268.5993a.56089.56089,0,0,0-.58087.58088v1.31555a.55394.55394,0,0,0,.58087.54889h10.642a.55523.55523,0,0,0,.58093-.54889V94.61469A.56211.56211,0,0,0,279.24127,94.03381Z"/>
        <path d="M232.72675,75.07343h-1.95838a.58143.58143,0,0,0-.58093.58093V90.11914h-.02991L216.8866,74.76807h-.76453a.57584.57584,0,0,0-.58093.551V95.89819a.60188.60188,0,0,0,.58093.58094h1.92627a.5814.5814,0,0,0,.58093-.58094V81.00635h.02991l13.27093,15.78033h.79664a.57589.57589,0,0,0,.58093-.551V75.65436A.60192.60192,0,0,0,232.72675,75.07343Z"/>
        <path d="M308.19861,83.14838a8.73085,8.73085,0,0,0-4.06842,1.12976c1.01025-3.76087,5.873-6.298,7.27838-6.7572.58087-.18366.70471-.52112.551-.88636l-.519-1.2536a.55976.55976,0,0,0-.76459-.36731c-2.81475,1.06995-10.123,4.6792-10.123,13.209,0,4.7091,2.32361,8.564,7.21637,8.564a6.9648,6.9648,0,0,0,6.81915-7.00287A6.34653,6.34653,0,0,0,308.19861,83.14838Zm-.45917,10.88543c-3.33374,0-4.4635-3.48541-4.22-6.05456a4.8861,4.8861,0,0,1,4.19006-2.32361,4.19145,4.19145,0,0,1,.02991,8.37817Z"/>
        <path d="M293.704,85.80725v-.1217a5.6209,5.6209,0,0,0,3.15008-4.70917c0-3.36365-2.78277-5.5954-6.54364-5.5954-3.67126,0-6.48388,2.23175-6.48388,5.5954a5.62584,5.62584,0,0,0,3.15014,4.739v.09186c-1.13189.52112-3.70111,2.44745-3.70111,5.10639,0,3.33374,2.723,5.873,7.00281,5.873,4.43573,0,7.12665-2.5393,7.12665-5.873C297.405,88.28461,295.11133,86.45007,293.704,85.80725Zm-6.78931-4.70911a3.22,3.22,0,0,1,3.3338-3.2099,3.27172,3.27172,0,0,1,3.5174,3.2099c0,1.621-1.07,2.93653-3.4256,3.27186C287.95477,84.00262,286.91467,82.749,286.91467,81.09814Zm3.39575,13.21113c-2.01818,0-3.85272-1.31556-3.85272-3.33368,0-1.621,1.40522-3.30176,3.88257-3.66907,2.47736.36731,3.88269,2.04809,3.88269,3.66907C294.223,93.02362,292.48022,94.30927,290.31042,94.30927Z"/>
        <path d="M243.6532,59.72809a.86076.86076,0,0,0,.83081.83081H248.546a.85922.85922,0,0,0,.83081-.83081V35.2215h6.68457a.82833.82833,0,0,0,.82867-.83081V30.8092a.82835.82835,0,0,0-.82867-.83075H236.97076a.8302.8302,0,0,0-.83081.83075v3.58149a.83017.83017,0,0,0,.83081.83081h6.68244Z"/>
        <path d="M408.86743,29.54279a15.72589,15.72589,0,1,0,15.72479,15.76965A15.662,15.662,0,0,0,408.86743,29.54279Zm0,25.77307a10.04727,10.04727,0,0,1,0-20.09436,10.04718,10.04718,0,0,1,0,20.09436Z"/>
        <path d="M301.53583,60.99457A14.9923,14.9923,0,0,0,312.15,56.75745a.83079.83079,0,0,0,.04487-1.1789l-2.708-2.79559a.804.804,0,0,0-1.09345,0,10.48672,10.48672,0,0,1-6.68243,2.49017,9.89245,9.89245,0,0,1-9.78558-10.09094,9.90328,9.90328,0,0,1,9.74072-10.17853,10.33943,10.33943,0,0,1,6.72729,2.57562.7.7,0,0,0,1.09345,0L312.15,34.82855a.812.812,0,0,0-.04266-1.22375,14.78182,14.78182,0,0,0-10.57153-4.062,15.726,15.726,0,1,0,0,31.45178Z"/>
        <path d="M202.37311,60.5589h15.98968a.82828.82828,0,0,0,.82862-.83081V56.14667a.82832.82832,0,0,0-.82862-.83081H207.22321V30.8092a.86083.86083,0,0,0-.83075-.83075h-4.01935a.83015.83015,0,0,0-.83075.83075V59.72809A.83012.83012,0,0,0,202.37311,60.5589Z"/>
        <path d="M225.74573,29.97845h4.05988a.83081.83081,0,0,1,.83081.83081V59.72815a.83075.83075,0,0,1-.83075.83075h-4.06207a.82867.82867,0,0,1-.82867-.82867v-28.921A.83081.83081,0,0,1,225.74573,29.97845Z"/>
        <path d="M352.12311,29.97845h4.062a.82861.82861,0,0,1,.82861.82861v28.921a.83081.83081,0,0,1-.83081.83081H352.121a.82867.82867,0,0,1-.82867-.82867V30.8092A.83075.83075,0,0,1,352.12311,29.97845Z"/>
        <path d="M181.23016,60.99457A15.726,15.726,0,1,0,165.548,45.31244,15.62385,15.62385,0,0,0,181.23016,60.99457Zm0-25.77307a10.04718,10.04718,0,1,1,0,20.09436,10.04728,10.04728,0,0,1,0-20.09436Z"/>
        <path d="M386.458,52.783a.804.804,0,0,0-1.09345,0,10.48675,10.48675,0,0,1-6.68249,2.49017,9.89246,9.89246,0,0,1-9.78559-10.09094,9.90336,9.90336,0,0,1,9.74073-10.17853,10.33958,10.33958,0,0,1,6.72735,2.57562.7.7,0,0,0,1.09345,0l2.66314-2.75073a.81208.81208,0,0,0-.04272-1.22375,14.78148,14.78148,0,0,0-10.57147-4.062,15.726,15.726,0,1,0,0,31.45178,14.9924,14.9924,0,0,0,10.61419-4.23712.83277.83277,0,0,0,.04493-1.1789Z"/>
        <path d="M342.9483,29.97845H338.929a.83015.83015,0,0,0-.83075.83075V48.85126h-.04273l-18.1723-19.30847h-1.09345a.81985.81985,0,0,0-.82861.78595V59.72809a.85884.85884,0,0,0,.82861.83081h3.97663a.82831.82831,0,0,0,.82861-.83081V40.94293h.04486l18.25983,20.05164h1.04858a.81981.81981,0,0,0,.82862-.78589V30.8092A.85888.85888,0,0,0,342.9483,29.97845Z"/>
        <path d="M142.17755,60.5589h4.01721a.85926.85926,0,0,0,.83075-.83081V49.462h5.46082a9.74184,9.74184,0,1,0-.04267-19.48359H142.17755a.83015.83015,0,0,0-.83075.83075V59.72809A.83012.83012,0,0,0,142.17755,60.5589Zm4.848-25.20709h5.06787a4.3589,4.3589,0,0,1,4.49982,4.23712,4.50461,4.50461,0,0,1-4.49982,4.54468h-5.06787Z"/>
        <path d="M280.48041,29.97845h-17.7793a.83015.83015,0,0,0-.83075.83075V59.72809a.83012.83012,0,0,0,.83075.83081h17.7793a.82828.82828,0,0,0,.82861-.83081V56.14667a.82831.82831,0,0,0-.82861-.83081H267.549V47.67023h10.78937a.82831.82831,0,0,0,.83075-.82862V43.21527a.86078.86078,0,0,0-.83075-.83075H267.549v-7.163h12.9314a.82828.82828,0,0,0,.82861-.83081V30.8092A.8283.8283,0,0,0,280.48041,29.97845Z"/>
      </g>
    </g>
  </g>
</svg>
